<svg xmlns="http://www.w3.org/2000/svg" width="250" height="222.855" viewBox="0 0 250 222.855">
  <g id="グループ_384" data-name="グループ 384" transform="translate(-88.295 -112.126)">
    <path id="パス_484" data-name="パス 484" d="M186.314,115.426c39.189-7.533,77.381-1.338,104.7,10.175,27.593,11.77,44.306,28.86,46.9,49.024,2.625,20.359-8.631,41.405-25.722,62.944-17.344,21.273-40.513,43.036-67.465,58.624-52.013,32.06-113.714,19.037-145.31-38.849C67.811,199.846,105.664,129,186.314,115.426Z" fill="#fee"/>
    <path id="パス_485" data-name="パス 485" d="M535.681,649.475s23.426.048,32.465.187c6.255.093,6.827-8.825,4.36-10.17-7.494-4.074-30.865-6.171-30.865-6.171l-15.9,14.6S526.635,647.9,535.681,649.475Z" transform="translate(-304.451 -362.74)" fill="#601715"/>
    <path id="パス_486" data-name="パス 486" d="M626.843,528.886s6.025-1.686,8.643,6.178c4.025,12.069,3.669,23.139,3.11,25.5-.261,1.084-1.032,4.836-7.763,4.981-2.726.059-1.637-5.789-1.637-5.789a128.076,128.076,0,0,1-3.615-13.367C623.721,537.984,626.843,528.886,626.843,528.886Z" transform="translate(-373.527 -289.95)" fill="#e0c4c3"/>
    <path id="パス_487" data-name="パス 487" d="M550.835,518.23l-15.448-4.995-11.692-.786-12.81,3.877s-4.193,2.889-.3,12.172,2.4,23.839,2.4,23.839l33.046,1.058a268.373,268.373,0,0,1,2.814-26.9C549.332,523.49,549.392,519.956,550.835,518.23Z" transform="translate(-292.752 -278.616)" fill="#ede2e2"/>
    <path id="パス_488" data-name="パス 488" d="M571.9,554.968h1.688a140.089,140.089,0,0,0-.264-39.328c-.509.3-1.013.605-1.523.9C572.229,529.78,571.5,543.017,571.9,554.968Z" transform="translate(-336.492 -280.837)" fill="#e0c4c3"/>
    <g id="グループ_374" data-name="グループ 374" transform="translate(230.065 222.366)">
      <path id="パス_489" data-name="パス 489" d="M566.521,490.625a3.84,3.84,0,0,1-3.224,3.409h-4.364a3.839,3.839,0,0,1-3.22-3.409q-.534-4.42-1.07-8.837c-.24-1.767.811-5.309,3.134-6.358a8.333,8.333,0,0,1,6.682,0c2.324,1.049,3.371,4.591,3.135,6.358Q567.059,486.211,566.521,490.625Z" transform="translate(-554.61 -474.731)" fill="#e2c59c"/>
    </g>
    <path id="パス_490" data-name="パス 490" d="M557.471,524.057,554.7,528.6l-5.078-6.351.8-3.34,1.652-1.356.021,2.516Z" transform="translate(-321.071 -282.169)" fill="#e0c4c3"/>
    <path id="パス_491" data-name="パス 491" d="M576.555,523.993l2.769,4.545,4.727-5.918-.778-3.627-1.18-1.53-.481,2.974Z" transform="translate(-339.818 -282.105)" fill="#e0c4c3"/>
    <path id="パス_492" data-name="パス 492" d="M558.214,458.6a3.482,3.482,0,0,0-2.926,1.578h-1.2a2.707,2.707,0,0,0-2.708,2.71v6.685h1.9V466.85a1.907,1.907,0,0,1,1.9-1.906h.516a3.492,3.492,0,0,0,3.494-3.492V458.6Z" transform="translate(-322.298 -241.135)" fill="#631a18"/>
    <path id="パス_493" data-name="パス 493" d="M554.838,494.485a1.658,1.658,0,0,1-1.661,1.657h-.137a1.657,1.657,0,0,1-1.658-1.657v-2.011a1.656,1.656,0,0,1,1.658-1.654h.137a1.657,1.657,0,0,1,1.517.985" transform="translate(-322.298 -263.563)" fill="#e2c59c"/>
    <path id="パス_494" data-name="パス 494" d="M568.959,461.251V458.6H574.7a3.491,3.491,0,0,1,3.494,3.491v2.657h-5.737A3.493,3.493,0,0,1,568.959,461.251Z" transform="translate(-334.531 -241.135)" fill="#631a18"/>
    <path id="パス_495" data-name="パス 495" d="M567.338,478.2a5.458,5.458,0,0,1-2.825,4.484,10.148,10.148,0,0,1-7.611,0,5.449,5.449,0,0,1-2.828-4.484V466.368a2.935,2.935,0,0,1,3.108-2.605h7.049a2.93,2.93,0,0,1,3.107,2.605Z" transform="translate(-324.171 -244.732)" fill="#e9d6b8"/>
    <path id="パス_496" data-name="パス 496" d="M573.7,458.6a3.484,3.484,0,0,1,2.924,1.578h1.2a2.706,2.706,0,0,1,2.7,2.71v6.685h-1.9V466.85a1.906,1.906,0,0,0-1.907-1.906h-2.43a3.488,3.488,0,0,1-3.493-3.492V458.6Z" transform="translate(-335.809 -241.135)" fill="#631a18"/>
    <path id="パス_497" data-name="パス 497" d="M591.541,492.474a1.652,1.652,0,0,1,1.656-1.654h.139a1.658,1.658,0,0,1,1.66,1.654v2.011a1.663,1.663,0,0,1-1.66,1.657H593.2a1.661,1.661,0,0,1-1.515-.985" transform="translate(-350.248 -263.563)" fill="#e9d6b8"/>
    <path id="パス_498" data-name="パス 498" d="M557.284,461.937a3.771,3.771,0,0,0,.065-.685V458.6h-2.47a3.493,3.493,0,0,0-3.5,3.491v2.657h2.473a3.433,3.433,0,0,0,.718-.075A3.5,3.5,0,0,1,557.284,461.937Z" transform="translate(-322.298 -241.135)" fill="#631a18"/>
    <path id="パス_499" data-name="パス 499" d="M469.471,820.877c-.359.437-.1,1.587-.1,1.587s6.3.7,8.333.226a10.684,10.684,0,0,0,2.259-1.058c.14-.082.392-.566.529-.646.253-.154.386.1.6-.035a6.73,6.73,0,0,0,.966-.665c.555-2.895-.182-4.058-.182-4.058s-5.369-1.783-6.374-.544C473.137,818.617,470.261,819.919,469.471,820.877Z" transform="translate(-265.159 -489.357)" fill="#161711"/>
    <path id="パス_500" data-name="パス 500" d="M663.744,817.134l.435,4.764,4.77.465s.328-.637.734-.6c.341.034.716.738,1.175.784,1,.1,2.119.207,2.56.252l9.573.937s.31-.964.078-1.328a4.58,4.58,0,0,0-1.4-.769c-2.394-.931-9.231-3.782-10.227-6.258C670.23,812.371,663.744,817.134,663.744,817.134Z" transform="translate(-400.5 -488.757)" fill="#161711"/>
    <g id="グループ_375" data-name="グループ 375" transform="translate(239.91 268.07)">
      <path id="パス_501" data-name="パス 501" d="M603.116,625.066l-16.125,6.585s11.44,1.634,18.59.177C610.416,630.838,603.337,624.86,603.116,625.066Z" transform="translate(-586.991 -625.061)" fill="#e9d6b8"/>
    </g>
    <path id="パス_502" data-name="パス 502" d="M488.141,655.217s-1.551,14.722-1.331,22.507a169.266,169.266,0,0,1-1.213,26.708c-.086.591-7.585.149-7.585.149s-2.691-36.5-3.5-42.51S476.043,651.723,488.141,655.217Z" transform="translate(-268.704 -377.11)" fill="#601715"/>
    <path id="パス_503" data-name="パス 503" d="M652.839,663.844s-2.416,3.817-9.042,4.719c-2.4.326,3.861,42.728,3.861,42.728l9.8-3.138-1.894-46.888Z" transform="translate(-386.236 -382.189)" fill="#511614"/>
    <path id="パス_504" data-name="パス 504" d="M512.6,649.063s-12.8,1.828-21.348,2.723c-3.136.33-5.847-8.441-6.209-8.821a6.458,6.458,0,0,0-4.469-2.179c1.852-2,11.441-3.858,21.462-6.21s11.547-.869,11.547-.869Z" transform="translate(-273.018 -362.688)" fill="#511614"/>
    <path id="パス_505" data-name="パス 505" d="M502.039,634.573c-10.021,2.353-19.611,4.213-21.462,6.21a6.458,6.458,0,0,1,4.469,2.179c.1.1.673,2.918,1.086,3.922-1.632-2.942,21.917-11.242,27-13.39C512.185,633.19,509.417,632.843,502.039,634.573Z" transform="translate(-273.018 -362.687)" fill="#511614"/>
    <path id="パス_506" data-name="パス 506" d="M502.755,678.684l-.979,28.651-.982,6.645-.108-6.645.216-4.14-2.288-6.427-1.2-14.923,1.746.653-.218-6.536Z" transform="translate(-284.737 -392.417)" fill="#511614"/>
    <path id="パス_507" data-name="パス 507" d="M664.93,658.042l2.395.655.873,34.421-5.009,12.311,2.394-8.389-.98-17.321s-3.488,8.388-3.488,7.956,2.944-18.2,2.944-18.2a39.134,39.134,0,0,0-2.944,2.615C661.442,671.986,663.075,659.676,664.93,658.042Z" transform="translate(-398.653 -379.945)" fill="#601715"/>
    <path id="パス_508" data-name="パス 508" d="M487.508,523.178s-5.15-4.033-10.182,3.451c-7.379,10.968-10.583,22.635-11.757,26.01-.894,2.593-.4,9.91,2.616,12.927.728.728,5.085.142,5.085.142l2.86-1.974-1.2-2.3-.066-1.818s3.659-8.822,8.148-17.163S487.508,523.178,487.508,523.178Z" transform="translate(-262.296 -285.328)" fill="#ede2e2"/>
    <g id="グループ_377" data-name="グループ 377" transform="translate(211.352 270.391)">
      <path id="パス_509" data-name="パス 509" d="M494.338,635.964l16.71.869s-16.095,7.385-16.625,6.111C491.406,635.734,494.338,635.964,494.338,635.964Z" transform="translate(-493.06 -634.97)" fill="#e9d6b8"/>
      <g id="グループ_376" data-name="グループ 376" transform="translate(10.328)">
        <path id="パス_510" data-name="パス 510" d="M527.174,633.174c.977-.469.886-.477.886-.477a4.025,4.025,0,0,0,2.188,1.259c.643.1,2.715.127,2.715.127l3.076.073,1.428-.077a2.623,2.623,0,0,1,1.018.029c.622.4.092.72.092.72l-5.517.781,5.3.659s.668.194.7.557c.026.333-.2.324-.2.324l-6.155.658,2.7.644s.644.208.692.557c.057.381.079.487.079.487l-5.661-.555S526.2,633.645,527.174,633.174Z" transform="translate(-527.03 -632.697)" fill="#e9d6b8"/>
        <path id="パス_511" data-name="パス 511" d="M546.291,645.488l3.707.675a3.089,3.089,0,0,1,1.219.332.5.5,0,0,1,.178.694l-5.68-.479Z" transform="translate(-540.034 -641.599)" fill="#e9d6b8"/>
      </g>
    </g>
    <g id="グループ_380" data-name="グループ 380" transform="translate(218.244 253.605)">
      <path id="パス_512" data-name="パス 512" d="M548.652,652.579a.192.192,0,0,1,.017-.031l-.017-1.054H515.729v1.054a.094.094,0,0,0,0,.031l.114.2c.56.916,1.566,1.075,2.718,1.075h27.26c1.151,0,2.158-.159,2.717-1.075Z" transform="translate(-515.728 -628.993)" fill="#b6c2c9"/>
      <g id="グループ_378" data-name="グループ 378" transform="translate(5.572 22.743)">
        <rect id="長方形_178" data-name="長方形 178" width="21.796" height="0.744" fill="#879ba6"/>
      </g>
      <g id="グループ_379" data-name="グループ 379" transform="translate(0.028)">
        <path id="パス_513" data-name="パス 513" d="M548.692,600.1l.087-21.586a1.023,1.023,0,0,0-1.027-1.029h-30.81a1.037,1.037,0,0,0-1.036,1.029l-.088,21.586Z" transform="translate(-515.819 -577.484)" fill="#e4eef3"/>
        <path id="パス_514" data-name="パス 514" d="M567.463,610.106a2,2,0,1,1-1.987-1.995A2,2,0,0,1,567.463,610.106Z" transform="translate(-548.984 -598.8)" fill="#b6c2c9"/>
      </g>
    </g>
    <path id="パス_515" data-name="パス 515" d="M487.508,642.16l-1.145-7.326,1.9-1.959,4.219.675-.863,8.108Z" transform="translate(-277.046 -362.43)" fill="#ccb6b6"/>
    <path id="パス_516" data-name="パス 516" d="M640.821,628.985l.441-2.695-5.34-4.793-2.891,1.3,3.779,7.227Z" transform="translate(-379.125 -354.511)" fill="#ccb6b6"/>
    <ellipse id="楕円形_16" data-name="楕円形 16" cx="14.441" cy="8.665" rx="14.441" ry="8.665" transform="translate(191.269 187.789)" fill="#fff"/>
    <ellipse id="楕円形_17" data-name="楕円形 17" cx="7.854" cy="4.712" rx="7.854" ry="4.712" transform="translate(212.55 206.335)" fill="#fff"/>
    <g id="グループ_383" data-name="グループ 383" transform="translate(125.296 141.274)">
      <ellipse id="楕円形_18" data-name="楕円形 18" cx="42.563" cy="25.538" rx="42.563" ry="25.538" fill="#fff"/>
      <g id="グループ_381" data-name="グループ 381" transform="translate(19.003 20.238)">
        <path id="パス_517" data-name="パス 517" d="M389.172,280.352a5.783,5.783,0,1,0,5.79-5.786A5.787,5.787,0,0,0,389.172,280.352Z" transform="translate(-353.703 -274.566)" fill="#ff7b7b"/>
        <path id="パス_518" data-name="パス 518" d="M330.826,280.352a5.783,5.783,0,1,0,5.793-5.786A5.789,5.789,0,0,0,330.826,280.352Z" transform="translate(-313.095 -274.566)" fill="#ff7b7b"/>
        <path id="パス_519" data-name="パス 519" d="M272.505,280.352a5.781,5.781,0,1,0,5.785-5.786A5.785,5.785,0,0,0,272.505,280.352Z" transform="translate(-272.505 -274.566)" fill="#ff7b7b"/>
      </g>
      <g id="グループ_382" data-name="グループ 382" transform="translate(19.049 20.238)">
        <path id="パス_520" data-name="パス 520" d="M400.8,279.866H389.334a5.751,5.751,0,0,1,11.467,0Z" transform="translate(-353.861 -274.566)" fill="#ed9a9a"/>
        <path id="パス_521" data-name="パス 521" d="M342.459,279.866H330.991a5.752,5.752,0,0,1,11.468,0Z" transform="translate(-313.256 -274.566)" fill="#ed9a9a"/>
        <path id="パス_522" data-name="パス 522" d="M284.123,279.866H272.656a5.751,5.751,0,0,1,11.467,0Z" transform="translate(-272.656 -274.566)" fill="#ed9a9a"/>
      </g>
    </g>
  </g>
</svg>
