<svg xmlns="http://www.w3.org/2000/svg" viewBox="0 0 925.12 147.2"><defs><style>.cls-1{fill:#fff;}.cls-2{fill:none;stroke:#fff;stroke-miterlimit:10;stroke-width:7px;}</style></defs><g id="レイヤー_2" data-name="レイヤー 2"><g id="レイヤー_2-2" data-name="レイヤー 2"><path class="cls-1" d="M828.08,85.54c0,20.28,9.8,25.76,20.13,25.91-1.17.6-2.39,1.25-3.59,2-6.6,4-13,12.86-13,19.6s3.84,14.14,18.08,14.14c21.41,0,22.15-19.17,22.15-19.17V62.23S828.08,42.68,828.08,85.54Zm13.11,1.89c0-9.72,4.07-19,11-19,4.89,0,5.56,1.37,5.61,1.93a.7.7,0,0,1,0,.23v28.1s-.9,5.57-7.37,5.57S841.19,97.14,841.19,87.43Zm16.63,44.4c-.11.51,0,6.77-6.15,6.77-4.93,0-6.8-4-6.8-7.52,0-9.08,5.63-15,9.47-17.9,1.47-1.13,3.48.08,3.48,2.06Z"/><path class="cls-1" d="M903.92,99.88c-10.49.43-10.76-10.23-10.76-10.23l4.11.4c.46,0,1,0,1.64,0l1.16-.06c.41,0,.82,0,1.25,0a45.43,45.43,0,0,0,5.73-.75,44.18,44.18,0,0,0,6.31-1.75,21.23,21.23,0,0,0,5.83-3.12,16.57,16.57,0,0,0,4.29-5,15.29,15.29,0,0,0,1.64-7.3,16.5,16.5,0,0,0-.9-5.46,11.48,11.48,0,0,0-2.85-4.45,13.82,13.82,0,0,0-5.16-3,23.76,23.76,0,0,0-7.83-1.14,26.71,26.71,0,0,0-10,1.7,22.64,22.64,0,0,0-7.11,4.4,23.14,23.14,0,0,0-4.77,6.15,37.84,37.84,0,0,0-2.85,6.9,38.91,38.91,0,0,0-1.36,6.74,47.91,47.91,0,0,0-.36,5.62,25.06,25.06,0,0,0,1.95,10.6,19.08,19.08,0,0,0,5,6.77,18.6,18.6,0,0,0,6.93,3.56,31.08,31.08,0,0,0,7.78,1,29.84,29.84,0,0,0,5.72-.51c9.12-1.86,13.48-4.42,13.48-4.42l2.26-1v-12S917.69,99.31,903.92,99.88Zm6.41-32c5.32,2.16,3.44,15-16.42,14.65C894.6,71.51,903,64.93,910.33,67.89Z"/><path class="cls-1" d="M628.73,53.83q-8.22,0-12.74,6.19t-4.51,17.23q0,23,17.25,23,7.24,0,17.54-3.62v12.23a48.7,48.7,0,0,1-18.9,3.52q-15,0-23-9.09t-7.94-26.12a42.7,42.7,0,0,1,3.9-18.79A28.15,28.15,0,0,1,611.6,46a33.12,33.12,0,0,1,17.13-4.31,46.26,46.26,0,0,1,20.13,4.85L644.15,58.4a75.39,75.39,0,0,0-7.75-3.2A23.19,23.19,0,0,0,628.73,53.83Z"/><path class="cls-1" d="M707.53,85.05q0,12.84-6.77,20.08t-18.85,7.24a26.4,26.4,0,0,1-13.36-3.31,22.12,22.12,0,0,1-8.88-9.52,32,32,0,0,1-3.11-14.49q0-12.87,6.73-20t18.9-7.14a26.49,26.49,0,0,1,13.36,3.29,22,22,0,0,1,8.88,9.45A31.69,31.69,0,0,1,707.53,85.05Zm-36.34,0q0,7.82,2.56,11.81t8.35,4q5.73,0,8.25-4t2.51-11.83q0-7.8-2.54-11.7c-1.69-2.61-4.46-3.9-8.32-3.9s-6.58,1.29-8.27,3.87S671.19,79.82,671.19,85.05Z"/><path class="cls-1" d="M733.72,111.43H719.38V38.27h14.34Z"/><path class="cls-1" d="M763.11,111.43H748.77V38.27h14.34Z"/><path class="cls-1" d="M47,111.43H0V39.84H47V51.31H13.52V68.42h33v11.2h-33V99.33H47Z"/><path class="cls-1" d="M103.05,111.43H90.24V80.22a13.16,13.16,0,0,0-.85-4.93,10,10,0,0,0-2.28-3.53,9,9,0,0,0-3.26-2.08A10.86,10.86,0,0,0,80.06,69a16.92,16.92,0,0,0-5.81,1,14.37,14.37,0,0,0-5.18,3.3v38.09H56.26V59.14H69.07L69.16,63A13.52,13.52,0,0,1,72,60.86a22.26,22.26,0,0,1,3.52-1.68,22.93,22.93,0,0,1,3.73-1,20,20,0,0,1,3.7-.36,22.35,22.35,0,0,1,7.51,1.27,17.91,17.91,0,0,1,6.41,3.89,18.87,18.87,0,0,1,4.49,6.78,26.1,26.1,0,0,1,1.69,9.87Z"/><path class="cls-1" d="M174.52,53.24H161.17V39.9h13.35Zm-.18,58.19h-13V59.92h13Z"/><path class="cls-1" d="M232.88,111.43H220.07V80.22a13.36,13.36,0,0,0-.85-4.93,10.25,10.25,0,0,0-2.28-3.53,9,9,0,0,0-3.26-2.08,10.91,10.91,0,0,0-3.8-.68,17,17,0,0,0-5.81,1,14.46,14.46,0,0,0-5.18,3.3v38.09H186.08V59.14h12.81L199,63a13.34,13.34,0,0,1,2.85-2.17,22.58,22.58,0,0,1,3.51-1.68,23,23,0,0,1,3.74-1,19.86,19.86,0,0,1,3.69-.36,22.37,22.37,0,0,1,7.52,1.27,17.87,17.87,0,0,1,6.4,3.89,18.89,18.89,0,0,1,4.5,6.78,26.3,26.3,0,0,1,1.69,9.87Z"/><path class="cls-1" d="M376.72,64.65l-6.85,11A23.21,23.21,0,0,0,365.73,72a8,8,0,0,0-4.58-1.58,7.18,7.18,0,0,0-2.71.59A7.75,7.75,0,0,0,355.68,73a11.06,11.06,0,0,0-2.18,3.56,14.81,14.81,0,0,0-.89,5.47v29.44H339.8V59.23h12.81v5.6a18.58,18.58,0,0,1,5.12-5.15,11.36,11.36,0,0,1,6.27-1.8,13.21,13.21,0,0,1,6.63,1.85A25.63,25.63,0,0,1,376.72,64.65Z"/><path class="cls-1" d="M436.11,90.88a18.75,18.75,0,0,1-1.83,8.26,20.75,20.75,0,0,1-4.84,6.53,22.16,22.16,0,0,1-7,4.24,22.86,22.86,0,0,1-8.32,1.52l-28.73-.09V39.84H411a25.9,25.9,0,0,1,8.58,1.39,20.1,20.1,0,0,1,6.9,4,18.27,18.27,0,0,1,4.58,6.44,21.17,21.17,0,0,1,1.65,8.53A18.09,18.09,0,0,1,431,68a19.53,19.53,0,0,1-4.72,6.34,16.68,16.68,0,0,1,4.14,3,19.32,19.32,0,0,1,3.11,4,18.66,18.66,0,0,1,2,4.65A19,19,0,0,1,436.11,90.88Zm-17-30.39a9.57,9.57,0,0,0-1-4.47,9.39,9.39,0,0,0-2.63-3.13A11.53,11.53,0,0,0,411.73,51a15.64,15.64,0,0,0-4.45-.63h-8.09V70.05c1.48.06,2.81.09,4,.09h4.09a18.57,18.57,0,0,0,4.45-.53,11.42,11.42,0,0,0,3.78-1.7,8.66,8.66,0,0,0,2.63-3A9.28,9.28,0,0,0,419.12,60.49Zm2.66,29.58a9.94,9.94,0,0,0-.84-4.11,9.27,9.27,0,0,0-2.32-3.17,10.41,10.41,0,0,0-3.37-2,11.7,11.7,0,0,0-4.14-.72q-3-.09-6,0c-2,0-3.95,0-6,0V99.81h10.32a19.24,19.24,0,0,0,4.44-.53,11.48,11.48,0,0,0,4-1.75,9.23,9.23,0,0,0,2.8-3A8.58,8.58,0,0,0,421.78,90.07Z"/><path class="cls-1" d="M485.84,110.1H473v-2.76a21.24,21.24,0,0,1-7.16,3.2,34.08,34.08,0,0,1-7.79.89,19.52,19.52,0,0,1-6.76-1.11,15.22,15.22,0,0,1-5.25-3.2,14.42,14.42,0,0,1-3.42-4.94,16.11,16.11,0,0,1-1.21-6.32,14.65,14.65,0,0,1,1.92-7.6,16.52,16.52,0,0,1,5.2-5.43,24.07,24.07,0,0,1,7.7-3.25,40.16,40.16,0,0,1,9.47-1.06h7.39a9.25,9.25,0,0,0-2.94-7.21c-2-1.78-4.77-2.67-8.45-2.67a17,17,0,0,0-5.52,1,16.66,16.66,0,0,0-5.69,3.56L443,65.53a28.89,28.89,0,0,1,9.47-6.05,29.67,29.67,0,0,1,11.08-2.14A25.19,25.19,0,0,1,473,59,19.54,19.54,0,0,1,484.47,71a35,35,0,0,1,1.37,10.68ZM473,97.29V87.77h-5.87a34.75,34.75,0,0,0-5,.35,14.28,14.28,0,0,0-4.09,1.2,7.61,7.61,0,0,0-2.76,2.18,5.13,5.13,0,0,0-1,3.21,5.34,5.34,0,0,0,2.09,4.36,8.32,8.32,0,0,0,5.38,1.69,18.67,18.67,0,0,0,5.65-.89A26.93,26.93,0,0,0,473,97.29Z"/><path class="cls-1" d="M533.43,95.51a13,13,0,0,1-1.78,6.8,16.14,16.14,0,0,1-4.64,5,21.32,21.32,0,0,1-6.42,3,25.47,25.47,0,0,1-7,1,26.47,26.47,0,0,1-10.83-2.19,22.56,22.56,0,0,1-8.7-7l7.74-7.83a17.13,17.13,0,0,0,5.34,4.58,13.36,13.36,0,0,0,6.5,1.65,10.24,10.24,0,0,0,5-1.11,3.59,3.59,0,0,0,2-3.34q0-2.31-2.84-3.87a41.8,41.8,0,0,0-8-3.07,37.67,37.67,0,0,1-5.87-2.27,21.35,21.35,0,0,1-5.07-3.38A15.86,15.86,0,0,1,495.27,79a12.8,12.8,0,0,1-1.34-6,13.1,13.1,0,0,1,1.74-6.72,16,16,0,0,1,4.55-5,21.63,21.63,0,0,1,6.37-3.07,25.17,25.17,0,0,1,7.23-1.07,24.06,24.06,0,0,1,19.26,8.9l-7.65,7.74a17.8,17.8,0,0,0-5.07-4.36,12.49,12.49,0,0,0-6.23-1.6,11,11,0,0,0-4.85,1.2,5.4,5.4,0,0,0-1.82,1.51,3.35,3.35,0,0,0-.71,2.1q0,2,2.71,3.55a40.19,40.19,0,0,0,7.78,3,35.52,35.52,0,0,1,6.23,2.49,24.37,24.37,0,0,1,5.16,3.51,15.71,15.71,0,0,1,3.51,4.54A12.47,12.47,0,0,1,533.43,95.51Z"/><path class="cls-1" d="M107.54,85.54c0,20.28,9.79,25.76,20.12,25.91-1.16.6-2.38,1.25-3.58,2-6.6,4-13,12.86-13,19.6s3.84,14.14,18.08,14.14c21.41,0,22.15-19.17,22.15-19.17V62.23S107.54,42.68,107.54,85.54Zm13.11,1.89c0-9.72,4.07-19,11-19,4.89,0,5.56,1.37,5.61,1.93a.7.7,0,0,1,0,.23v28.1s-.9,5.57-7.37,5.57S120.65,97.14,120.65,87.43Zm16.63,44.4c-.11.51,0,6.77-6.15,6.77-4.94,0-6.8-4-6.8-7.52,0-9.08,5.63-15,9.47-17.9,1.47-1.13,3.48.08,3.48,2.06Z"/><path class="cls-1" d="M262.81,100c-10.49.44-10.75-10.24-10.75-10.24l4.1.4c.46,0,1,0,1.65,0L259,90c.41,0,.82,0,1.26,0a43.69,43.69,0,0,0,12-2.51,21,21,0,0,0,5.82-3.12,16.26,16.26,0,0,0,4.29-5A15.19,15.19,0,0,0,284,72a16.6,16.6,0,0,0-.9-5.47,11.68,11.68,0,0,0-2.84-4.46,13.82,13.82,0,0,0-5.16-3,24,24,0,0,0-7.83-1.14,26.71,26.71,0,0,0-10,1.7A22.55,22.55,0,0,0,250.21,64a23.22,23.22,0,0,0-4.78,6.16,39.71,39.71,0,0,0-2.85,6.91,41,41,0,0,0-1.36,6.75,50.64,50.64,0,0,0-.36,5.63,25.12,25.12,0,0,0,2,10.62,18.8,18.8,0,0,0,5,6.78,18.49,18.49,0,0,0,6.93,3.58,31.47,31.47,0,0,0,13.5.51c9.11-1.87,13.47-4.43,13.47-4.43l2.26-1v-12S276.59,99.38,262.81,100Zm6.42-32c5.31,2.16,3.44,15-16.43,14.68C253.49,71.54,261.91,65,269.23,67.91Z"/><path class="cls-1" d="M311.32,100c-10.49.44-10.76-10.24-10.76-10.24l4.11.4c.46,0,1,0,1.64,0l1.16,0c.41,0,.82,0,1.26,0a45.53,45.53,0,0,0,5.72-.75,46.11,46.11,0,0,0,6.32-1.76,21,21,0,0,0,5.82-3.12,16.39,16.39,0,0,0,4.29-5A15.19,15.19,0,0,0,332.52,72a16.6,16.6,0,0,0-.9-5.47,11.59,11.59,0,0,0-2.85-4.46,13.82,13.82,0,0,0-5.16-3,24,24,0,0,0-7.82-1.14,26.67,26.67,0,0,0-10,1.7A22.55,22.55,0,0,0,298.72,64a23,23,0,0,0-4.78,6.16,37.38,37.38,0,0,0-4.21,13.66,50.64,50.64,0,0,0-.36,5.63,25.13,25.13,0,0,0,1.95,10.62,19,19,0,0,0,5,6.78,18.61,18.61,0,0,0,6.94,3.58,31.47,31.47,0,0,0,13.5.51c9.11-1.87,13.47-4.43,13.47-4.43l2.26-1v-12S325.09,99.38,311.32,100Zm6.42-32c5.31,2.16,3.44,15-16.43,14.68C302,71.54,310.42,65,317.74,67.91Z"/><path class="cls-1" d="M560.83,99.88c-10.5.43-10.76-10.23-10.76-10.23l4.11.4c.46,0,1,0,1.64,0L557,90c.41,0,.83,0,1.26,0a45.43,45.43,0,0,0,5.73-.75,44.54,44.54,0,0,0,6.31-1.75,21.23,21.23,0,0,0,5.83-3.12,16.4,16.4,0,0,0,4.28-5A15.17,15.17,0,0,0,582,72a16.5,16.5,0,0,0-.9-5.46,11.48,11.48,0,0,0-2.85-4.45,13.82,13.82,0,0,0-5.16-3,23.76,23.76,0,0,0-7.83-1.14,26.71,26.71,0,0,0-10,1.7,22.53,22.53,0,0,0-7.11,4.4,22.93,22.93,0,0,0-4.77,6.15A37.84,37.84,0,0,0,540.6,77a38.91,38.91,0,0,0-1.36,6.74,47.91,47.91,0,0,0-.36,5.62,25.06,25.06,0,0,0,2,10.6,19.08,19.08,0,0,0,5,6.77,18.45,18.45,0,0,0,6.93,3.56,31,31,0,0,0,7.78,1,29.84,29.84,0,0,0,5.72-.51c9.11-1.86,13.48-4.42,13.48-4.42l2.26-1v-12S574.6,99.31,560.83,99.88Zm6.41-32c5.31,2.16,3.44,15-16.43,14.65C551.51,71.51,559.93,64.93,567.24,67.89Z"/><path class="cls-1" d="M797.54,99.88c-10.49.43-10.76-10.23-10.76-10.23l4.11.4c.46,0,1,0,1.64,0l1.16-.06c.41,0,.82,0,1.26,0a45.53,45.53,0,0,0,5.72-.75A44.18,44.18,0,0,0,807,87.42a21,21,0,0,0,5.83-3.12,16.43,16.43,0,0,0,4.29-5,15.17,15.17,0,0,0,1.64-7.3,16.5,16.5,0,0,0-.9-5.46A11.48,11.48,0,0,0,815,62.06a13.82,13.82,0,0,0-5.16-3A23.7,23.7,0,0,0,802,57.88a26.64,26.64,0,0,0-10,1.7,22.53,22.53,0,0,0-7.11,4.4,23,23,0,0,0-4.78,6.15,39.31,39.31,0,0,0-2.85,6.9A39.87,39.87,0,0,0,776,83.77a50.2,50.2,0,0,0-.36,5.62,25.06,25.06,0,0,0,1.95,10.6,19.08,19.08,0,0,0,5,6.77,18.56,18.56,0,0,0,6.94,3.56,30.94,30.94,0,0,0,7.77,1,29.94,29.94,0,0,0,5.73-.51c9.11-1.86,13.47-4.42,13.47-4.42l2.26-1v-12S811.31,99.31,797.54,99.88Zm6.42-32c5.31,2.16,3.44,15-16.43,14.65C788.22,71.51,796.64,64.93,804,67.89Z"/><path class="cls-2" d="M178.48,23.54s12.2,4.23,10,19.92"/><path class="cls-2" d="M183.88,3.31s26.42,9.14,21.57,43.13"/><path class="cls-2" d="M157,23.54s-12.2,4.23-10,19.92"/><path class="cls-2" d="M150.64,3.31s-26.42,9.14-21.57,43.13"/></g></g></svg>