<svg xmlns="http://www.w3.org/2000/svg" viewBox="0 0 857.58 215.33"><defs><style>.cls-1{fill:#fff;}.cls-2{fill:none;stroke:#fff;stroke-miterlimit:10;stroke-width:7px;}</style></defs><g id="レイヤー_2" data-name="レイヤー 2"><g id="レイヤー_2-2" data-name="レイヤー 2"><path class="cls-1" d="M69.21,162.62H0V57.14H69.21V74H19.93V99.25H68.56v16.5H19.93V144.8H69.21Z"/><path class="cls-1" d="M151.84,162.62H133v-46a19.54,19.54,0,0,0-1.25-7.26,15.21,15.21,0,0,0-3.36-5.21,13.69,13.69,0,0,0-4.81-3.06,15.88,15.88,0,0,0-5.59-1,24.9,24.9,0,0,0-8.56,1.53,21.3,21.3,0,0,0-7.63,4.87v56.12H82.89V85.57h18.88l.13,5.73a20.33,20.33,0,0,1,4.19-3.2,32.71,32.71,0,0,1,5.18-2.46,33.86,33.86,0,0,1,5.51-1.54,29.71,29.71,0,0,1,5.44-.53,33,33,0,0,1,11.07,1.87,26.43,26.43,0,0,1,9.44,5.73,27.8,27.8,0,0,1,6.62,10,38.52,38.52,0,0,1,2.49,14.53Z"/><path class="cls-1" d="M257.14,76.88H237.48V57.22h19.66Zm-.26,85.74H237.74V86.72h19.14Z"/><path class="cls-1" d="M343.13,162.62H324.26v-46a19.33,19.33,0,0,0-1.26-7.26,15,15,0,0,0-3.35-5.21,13.69,13.69,0,0,0-4.81-3.06,15.84,15.84,0,0,0-5.59-1,24.9,24.9,0,0,0-8.56,1.53,21.3,21.3,0,0,0-7.63,4.87v56.12H274.18V85.57h18.88l.13,5.73a20.33,20.33,0,0,1,4.19-3.2,32.71,32.71,0,0,1,5.18-2.46,33.86,33.86,0,0,1,5.51-1.54,29.62,29.62,0,0,1,5.44-.53,33,33,0,0,1,11.07,1.87A26.43,26.43,0,0,1,334,91.17a27.67,27.67,0,0,1,6.62,10,38.52,38.52,0,0,1,2.49,14.53Z"/><path class="cls-1" d="M555.08,93.69,545,109.93a35.48,35.48,0,0,0-6.09-5.4,11.81,11.81,0,0,0-6.75-2.32,10.73,10.73,0,0,0-4,.86,11.58,11.58,0,0,0-4.06,2.86,16.33,16.33,0,0,0-3.21,5.26,21.54,21.54,0,0,0-1.31,8v43.38H500.68V85.7h18.88V94a27.46,27.46,0,0,1,7.53-7.59,16.76,16.76,0,0,1,9.24-2.66,19.48,19.48,0,0,1,9.77,2.73A38.11,38.11,0,0,1,555.08,93.69Z"/><path class="cls-1" d="M642.58,132.34a27.79,27.79,0,0,1-2.69,12.18,30.66,30.66,0,0,1-7.14,9.61,32.81,32.81,0,0,1-10.29,6.26,34,34,0,0,1-12.26,2.23l-42.34-.13V57.14h37.75a38,38,0,0,1,12.65,2,29.64,29.64,0,0,1,10.16,5.93,26.94,26.94,0,0,1,6.75,9.48,31.25,31.25,0,0,1,2.43,12.57A26.55,26.55,0,0,1,635,98.62a28.69,28.69,0,0,1-7,9.35,24.22,24.22,0,0,1,6.09,4.35,28.2,28.2,0,0,1,4.59,5.86,27.92,27.92,0,0,1,3.87,14.16Zm-25-44.78A14.07,14.07,0,0,0,616.1,81a13.53,13.53,0,0,0-3.87-4.61,17,17,0,0,0-5.57-2.77,23.3,23.3,0,0,0-6.55-.92H588.18v29q3.27.13,5.9.13h6a26.59,26.59,0,0,0,6.55-.79,16.35,16.35,0,0,0,5.57-2.5,12.49,12.49,0,0,0,3.87-4.41A13.68,13.68,0,0,0,617.54,87.56Zm3.93,43.59a14.6,14.6,0,0,0-1.24-6.06,13.6,13.6,0,0,0-3.41-4.67,15.81,15.81,0,0,0-5-3,17.33,17.33,0,0,0-6.1-1c-3-.09-5.89-.11-8.78-.06s-5.81.06-8.78.06v29.1h15.2a27.75,27.75,0,0,0,6.56-.79,17.09,17.09,0,0,0,5.83-2.56,13.83,13.83,0,0,0,4.13-4.48A12.72,12.72,0,0,0,621.47,131.15Z"/><path class="cls-1" d="M715.86,160.66H697v-4.07a31.05,31.05,0,0,1-10.55,4.72A50.18,50.18,0,0,1,675,162.62,28.51,28.51,0,0,1,665,161a22.46,22.46,0,0,1-7.74-4.71,21.42,21.42,0,0,1-5-7.28,23.88,23.88,0,0,1-1.77-9.31,21.71,21.71,0,0,1,2.82-11.21,24.45,24.45,0,0,1,7.67-8,35.26,35.26,0,0,1,11.34-4.78,59.09,59.09,0,0,1,14-1.58h10.88c0-4.46-1.44-8-4.32-10.62s-7-3.93-12.46-3.93a23.84,23.84,0,0,0-16.52,6.69L652.67,95a42.92,42.92,0,0,1,14-8.91A43.86,43.86,0,0,1,683,82.92a37,37,0,0,1,14,2.49A28.77,28.77,0,0,1,713.84,103a51.62,51.62,0,0,1,2,15.73ZM697,141.78v-14h-8.65a49.68,49.68,0,0,0-7.41.53,21,21,0,0,0-6,1.77,11.15,11.15,0,0,0-4.06,3.21,7.51,7.51,0,0,0-1.51,4.72,7.88,7.88,0,0,0,3.08,6.42,12.23,12.23,0,0,0,7.93,2.49,27.19,27.19,0,0,0,8.33-1.31A40.06,40.06,0,0,0,697,141.78Z"/><path class="cls-1" d="M786,139.16a19.17,19.17,0,0,1-2.63,10,23.94,23.94,0,0,1-6.83,7.34,31.31,31.31,0,0,1-9.46,4.45,37.4,37.4,0,0,1-10.38,1.51,39.17,39.17,0,0,1-16-3.21A33.16,33.16,0,0,1,727.91,149l11.41-11.53a25.51,25.51,0,0,0,7.87,6.75,19.67,19.67,0,0,0,9.57,2.42,15,15,0,0,0,7.4-1.64,5.28,5.28,0,0,0,3-4.91c0-2.28-1.4-4.17-4.19-5.7a62,62,0,0,0-11.8-4.53,55,55,0,0,1-8.65-3.34,32,32,0,0,1-7.48-5,23.81,23.81,0,0,1-5.24-6.75,18.84,18.84,0,0,1-2-8.78,19.28,19.28,0,0,1,2.57-9.9,23.18,23.18,0,0,1,6.7-7.34,31.44,31.44,0,0,1,9.39-4.52,36.92,36.92,0,0,1,10.64-1.58q17.34,0,28.38,13.11l-11.27,11.41a26.17,26.17,0,0,0-7.47-6.43,18.46,18.46,0,0,0-9.18-2.36,15.59,15.59,0,0,0-3.6.46,16,16,0,0,0-3.54,1.31,7.85,7.85,0,0,0-2.69,2.23,5,5,0,0,0-1.05,3.08q0,3,4,5.24a58.52,58.52,0,0,0,11.47,4.46,54,54,0,0,1,9.17,3.67,35.85,35.85,0,0,1,7.61,5.18,23,23,0,0,1,5.18,6.69A18.44,18.44,0,0,1,786,139.16Z"/><path class="cls-1" d="M158.46,124.48c0,29.88,14.43,37.94,29.65,38.18-1.72.87-3.52,1.84-5.29,3-9.72,6-19.21,19-19.21,28.89s5.66,20.83,26.64,20.83c31.55,0,32.63-28.25,32.63-28.25v-97S158.46,61.32,158.46,124.48Zm19.31,2.77c0-14.31,6-28,16.2-28,7.22,0,8.19,2,8.27,2.83a1.09,1.09,0,0,1,0,.35v41.39s-1.32,8.21-10.86,8.21S177.77,141.57,177.77,127.25Zm24.5,65.43c-.16.75,0,10-9.06,10-7.27,0-10-5.9-10-11.07,0-13.38,8.3-22,13.95-26.38,2.17-1.67,5.13.12,5.13,3Z"/><path class="cls-1" d="M387.24,145.71c-15.46.64-15.85-15.09-15.85-15.09l6.05.59c.68,0,1.48,0,2.42,0l1.7-.08c.61,0,1.21,0,1.86-.08a66.29,66.29,0,0,0,8.43-1.1,65.05,65.05,0,0,0,9.31-2.6,30.82,30.82,0,0,0,8.58-4.6,24.07,24.07,0,0,0,6.32-7.43,22.38,22.38,0,0,0,2.42-10.77,24.46,24.46,0,0,0-1.33-8.06A17.06,17.06,0,0,0,413,89.88a20.39,20.39,0,0,0-7.61-4.48,35.08,35.08,0,0,0-11.53-1.69,39.36,39.36,0,0,0-14.68,2.52,33.39,33.39,0,0,0-10.47,6.48,34.39,34.39,0,0,0-7,9.09,55.44,55.44,0,0,0-6.2,20.13,71.57,71.57,0,0,0-.53,8.29q0,9.45,2.88,15.65a27.82,27.82,0,0,0,7.41,10,27,27,0,0,0,10.21,5.27,46,46,0,0,0,11.46,1.49,44.46,44.46,0,0,0,8.43-.74c13.43-2.76,19.86-6.53,19.86-6.53l3.33-1.49V136.12S407.53,144.87,387.24,145.71Zm9.45-47.22c7.83,3.19,5.07,22.14-24.2,21.63C373.51,103.84,385.91,94.13,396.69,98.49Z"/><path class="cls-1" d="M458.72,145.71c-15.47.64-15.85-15.09-15.85-15.09l6.05.59c.68,0,1.47,0,2.42,0l1.7-.08c.6,0,1.21,0,1.85-.08a66.66,66.66,0,0,0,8.44-1.1,64.93,64.93,0,0,0,9.3-2.6,30.88,30.88,0,0,0,8.59-4.6,23.9,23.9,0,0,0,6.31-7.43A22.38,22.38,0,0,0,490,104.51a24.46,24.46,0,0,0-1.32-8.06,17,17,0,0,0-4.2-6.57,20.35,20.35,0,0,0-7.6-4.48,35.14,35.14,0,0,0-11.54-1.69,39.31,39.31,0,0,0-14.67,2.52,33.55,33.55,0,0,0-10.48,6.48,34.14,34.14,0,0,0-7,9.09,56.43,56.43,0,0,0-4.2,10.18,58.27,58.27,0,0,0-2,10,71.57,71.57,0,0,0-.53,8.29c0,6.3.94,11.52,2.87,15.65a28.05,28.05,0,0,0,7.41,10,27.12,27.12,0,0,0,10.21,5.27,46,46,0,0,0,11.46,1.49,44.49,44.49,0,0,0,8.44-.74c13.42-2.76,19.85-6.53,19.85-6.53l3.33-1.49V136.12S479,144.87,458.72,145.71Zm9.45-47.22c7.83,3.19,5.07,22.14-24.21,21.63C445,103.84,457.39,94.13,468.17,98.49Z"/><path class="cls-1" d="M826.35,145.6c-15.46.64-15.85-15.07-15.85-15.07l6,.59c.68,0,1.47,0,2.42,0l1.7-.07c.61,0,1.21,0,1.85-.08a64,64,0,0,0,17.74-3.69,31,31,0,0,0,8.59-4.59,24.09,24.09,0,0,0,6.31-7.42,22.37,22.37,0,0,0,2.42-10.76,24.34,24.34,0,0,0-1.32-8,16.93,16.93,0,0,0-4.2-6.56,20.34,20.34,0,0,0-7.6-4.47,35.14,35.14,0,0,0-11.54-1.69,39.31,39.31,0,0,0-14.67,2.51,33.55,33.55,0,0,0-10.48,6.48,34,34,0,0,0-7,9.06,56.64,56.64,0,0,0-4.2,10.17,58.06,58.06,0,0,0-2,9.93,71.54,71.54,0,0,0-.53,8.28c0,6.28.94,11.5,2.87,15.62a28,28,0,0,0,7.41,10A27.21,27.21,0,0,0,814.51,161,46,46,0,0,0,826,162.48a44.46,44.46,0,0,0,8.43-.74c13.43-2.75,19.86-6.52,19.86-6.52l3.32-1.49V136S846.64,144.76,826.35,145.6Zm9.45-47.13c7.83,3.18,5.07,22.09-24.21,21.58C812.62,103.81,825,94.11,835.8,98.47Z"/><path class="cls-2" d="M263,33.13s18,6.22,14.67,29.34"/><path class="cls-2" d="M270.94,3.31s38.93,13.47,31.78,63.55"/><path class="cls-2" d="M231.39,33.13s-18,6.22-14.67,29.34"/><path class="cls-2" d="M222,3.31S183,16.78,190.18,66.86"/></g></g></svg>