<svg xmlns="http://www.w3.org/2000/svg" viewBox="0 0 857.58 216.89"><defs><style>.cls-1{fill:#040000;}.cls-2{fill:none;stroke:#040000;stroke-miterlimit:10;stroke-width:10.31px;}</style></defs><g id="レイヤー_2" data-name="レイヤー 2"><g id="レイヤー_1-2" data-name="レイヤー 1"><path class="cls-1" d="M69.21,164.19H0V58.71H69.21V75.6H19.93v25.22H68.56v16.5H19.93v29H69.21Z"/><path class="cls-1" d="M151.84,164.19H133v-46a19.59,19.59,0,0,0-1.25-7.27,15.07,15.07,0,0,0-3.36-5.2,13.55,13.55,0,0,0-4.81-3.06,15.88,15.88,0,0,0-5.59-1,24.9,24.9,0,0,0-8.56,1.53,21.17,21.17,0,0,0-7.63,4.87v56.12H82.89V87.13h18.88l.13,5.74a20,20,0,0,1,4.19-3.2,32.76,32.76,0,0,1,5.18-2.47,34.87,34.87,0,0,1,5.51-1.53,29.71,29.71,0,0,1,5.44-.53A33.24,33.24,0,0,1,133.29,87a26.71,26.71,0,0,1,9.44,5.73,27.88,27.88,0,0,1,6.62,10,38.53,38.53,0,0,1,2.49,14.54Z"/><path class="cls-1" d="M257.14,78.45H237.48V58.78h19.66Zm-.26,85.74H237.74V88.29h19.14Z"/><path class="cls-1" d="M343.13,164.19H324.26v-46a19.39,19.39,0,0,0-1.26-7.27,14.91,14.91,0,0,0-3.35-5.2,13.55,13.55,0,0,0-4.81-3.06,15.84,15.84,0,0,0-5.59-1,24.9,24.9,0,0,0-8.56,1.53,21.17,21.17,0,0,0-7.63,4.87v56.12H274.18V87.13h18.88l.13,5.74a20,20,0,0,1,4.19-3.2,32.76,32.76,0,0,1,5.18-2.47,34.87,34.87,0,0,1,5.51-1.53,29.62,29.62,0,0,1,5.44-.53A33.2,33.2,0,0,1,324.58,87,26.71,26.71,0,0,1,334,92.73a27.75,27.75,0,0,1,6.62,10,38.53,38.53,0,0,1,2.49,14.54Z"/><path class="cls-1" d="M555.08,95.26,545,111.49a35.42,35.42,0,0,0-6.09-5.39,11.75,11.75,0,0,0-6.75-2.33,10.76,10.76,0,0,0-4,.87,11.58,11.58,0,0,0-4.06,2.86,16.22,16.22,0,0,0-3.21,5.26,21.5,21.5,0,0,0-1.31,8v43.38H500.68V87.27h18.88v8.25a27.28,27.28,0,0,1,7.53-7.58,16.68,16.68,0,0,1,9.24-2.66A19.48,19.48,0,0,1,546.1,88,37.61,37.61,0,0,1,555.08,95.26Z"/><path class="cls-1" d="M642.58,133.9a27.79,27.79,0,0,1-2.69,12.18,30.59,30.59,0,0,1-7.14,9.62A32.6,32.6,0,0,1,622.46,162a34,34,0,0,1-12.26,2.24l-42.34-.13V58.71h37.75a38,38,0,0,1,12.65,2,29.78,29.78,0,0,1,10.16,5.92,27,27,0,0,1,6.75,9.49,31.25,31.25,0,0,1,2.43,12.57A26.59,26.59,0,0,1,635,100.19a28.8,28.8,0,0,1-7,9.35,24.19,24.19,0,0,1,6.09,4.34,28,28,0,0,1,8.46,20Zm-25-44.77a14.11,14.11,0,0,0-1.44-6.59,13.72,13.72,0,0,0-3.87-4.61,17,17,0,0,0-5.57-2.76,22.94,22.94,0,0,0-6.55-.93H588.18v29q3.27.14,5.9.13h6a26.59,26.59,0,0,0,6.55-.79,16.54,16.54,0,0,0,5.57-2.5,12.49,12.49,0,0,0,3.87-4.41A13.71,13.71,0,0,0,617.54,89.13Zm3.93,43.59a14.56,14.56,0,0,0-1.24-6.06,13.64,13.64,0,0,0-3.41-4.68,15.78,15.78,0,0,0-5-3,17.33,17.33,0,0,0-6.1-1c-3-.09-5.89-.11-8.78-.07s-5.81.07-8.78.07v29.1h15.2a27.75,27.75,0,0,0,6.56-.79,17.11,17.11,0,0,0,5.83-2.57,13.7,13.7,0,0,0,4.13-4.47A12.75,12.75,0,0,0,621.47,132.72Z"/><path class="cls-1" d="M715.86,162.22H697v-4.06a31.25,31.25,0,0,1-10.55,4.72A50.18,50.18,0,0,1,675,164.19a28.74,28.74,0,0,1-10-1.64,22.33,22.33,0,0,1-7.74-4.72,21.38,21.38,0,0,1-5-7.27,23.91,23.91,0,0,1-1.77-9.31A21.68,21.68,0,0,1,653.26,130a24.48,24.48,0,0,1,7.67-8,35.71,35.71,0,0,1,11.34-4.78,59.1,59.1,0,0,1,14-1.57h10.88q0-6.69-4.32-10.62t-12.46-3.93a23.89,23.89,0,0,0-16.52,6.68L652.67,96.55a42.6,42.6,0,0,1,14-8.91A43.86,43.86,0,0,1,683,84.49,37,37,0,0,1,697,87a28.72,28.72,0,0,1,16.88,17.56,51.71,51.71,0,0,1,2,15.73ZM697,143.35v-14h-8.65a51.1,51.1,0,0,0-7.41.52,21.62,21.62,0,0,0-6,1.77,11.28,11.28,0,0,0-4.06,3.22,7.49,7.49,0,0,0-1.51,4.72A7.89,7.89,0,0,0,672.4,146a12.23,12.23,0,0,0,7.93,2.49,27.49,27.49,0,0,0,8.33-1.31A40.06,40.06,0,0,0,697,143.35Z"/><path class="cls-1" d="M786,140.73a19.11,19.11,0,0,1-2.63,10,24,24,0,0,1-6.83,7.35,31.55,31.55,0,0,1-9.46,4.45,37.78,37.78,0,0,1-10.38,1.51,39.17,39.17,0,0,1-16-3.21,33.16,33.16,0,0,1-12.82-10.29L739.32,139a25.38,25.38,0,0,0,7.87,6.75,19.68,19.68,0,0,0,9.57,2.43,15.09,15.09,0,0,0,7.4-1.64,5.29,5.29,0,0,0,3-4.92q0-3.4-4.19-5.7a62.12,62.12,0,0,0-11.8-4.52,56,56,0,0,1-8.65-3.34,32,32,0,0,1-7.48-5,23.63,23.63,0,0,1-5.24-6.74,18.91,18.91,0,0,1-2-8.79,19.28,19.28,0,0,1,2.57-9.9,23.4,23.4,0,0,1,6.7-7.34,31.93,31.93,0,0,1,9.39-4.52,36.9,36.9,0,0,1,10.64-1.57q17.34,0,28.38,13.11l-11.27,11.4a26,26,0,0,0-7.47-6.42,18.35,18.35,0,0,0-9.18-2.36,16.32,16.32,0,0,0-7.14,1.77,7.85,7.85,0,0,0-2.69,2.23,4.93,4.93,0,0,0-1.05,3.08c0,2,1.33,3.75,4,5.24a59.16,59.16,0,0,0,11.47,4.46,52.38,52.38,0,0,1,9.17,3.67,35.48,35.48,0,0,1,7.61,5.18,23,23,0,0,1,5.18,6.68A18.48,18.48,0,0,1,786,140.73Z"/><path class="cls-1" d="M158.46,126c0,29.89,14.43,38,29.65,38.18-1.72.88-3.52,1.84-5.29,2.95-9.72,6-19.21,19-19.21,28.89s5.66,20.83,26.64,20.83c31.55,0,32.63-28.25,32.63-28.25V91.69S158.46,62.89,158.46,126Zm19.31,2.78c0-14.32,6-28,16.2-28,7.22,0,8.19,2,8.27,2.84a1.12,1.12,0,0,1,0,.35v41.39s-1.32,8.21-10.86,8.21S177.77,143.13,177.77,128.82Zm24.5,65.43c-.16.75,0,10-9.06,10-7.27,0-10-5.9-10-11.07,0-13.38,8.3-22,13.95-26.38,2.17-1.66,5.13.12,5.13,3Z"/><path class="cls-1" d="M387.24,147.28c-15.46.64-15.85-15.1-15.85-15.1l6.05.59c.68,0,1.48,0,2.42,0l1.7-.07c.61,0,1.21,0,1.86-.08a63.77,63.77,0,0,0,17.74-3.7,30.82,30.82,0,0,0,8.58-4.6,24.07,24.07,0,0,0,6.32-7.43,22.41,22.41,0,0,0,2.42-10.77A24.42,24.42,0,0,0,417.15,98,17.06,17.06,0,0,0,413,91.45,20.26,20.26,0,0,0,405.35,87a35.08,35.08,0,0,0-11.53-1.69,39.37,39.37,0,0,0-14.68,2.51,33.41,33.41,0,0,0-10.47,6.49,34.18,34.18,0,0,0-7,9.08,55.59,55.59,0,0,0-6.2,20.13,71.85,71.85,0,0,0-.53,8.3c0,6.29,1,11.52,2.88,15.65a27.82,27.82,0,0,0,7.41,10,27.33,27.33,0,0,0,10.21,5.27,46,46,0,0,0,11.46,1.49,44.44,44.44,0,0,0,8.43-.75c13.43-2.75,19.86-6.52,19.86-6.52l3.33-1.5V137.69S407.53,146.44,387.24,147.28Zm9.45-47.22c7.83,3.18,5.07,22.14-24.2,21.63C373.51,105.41,385.91,95.7,396.69,100.06Z"/><path class="cls-1" d="M458.72,147.28c-15.47.64-15.85-15.1-15.85-15.1l6.05.59c.68,0,1.47,0,2.42,0l1.7-.07c.6,0,1.21,0,1.85-.08a63.58,63.58,0,0,0,17.74-3.7,30.88,30.88,0,0,0,8.59-4.6,23.9,23.9,0,0,0,6.31-7.43A22.41,22.41,0,0,0,490,106.08,24.42,24.42,0,0,0,488.63,98a17,17,0,0,0-4.2-6.57,20.22,20.22,0,0,0-7.6-4.48,35.14,35.14,0,0,0-11.54-1.69,39.31,39.31,0,0,0-14.67,2.51,33.57,33.57,0,0,0-10.48,6.49,33.94,33.94,0,0,0-7,9.08,56.52,56.52,0,0,0-4.2,10.19,58.36,58.36,0,0,0-2,9.94,71.85,71.85,0,0,0-.53,8.3c0,6.29.94,11.52,2.87,15.65a28.05,28.05,0,0,0,7.41,10,27.41,27.41,0,0,0,10.21,5.27,46,46,0,0,0,11.46,1.49,44.47,44.47,0,0,0,8.44-.75c13.42-2.75,19.85-6.52,19.85-6.52l3.33-1.5V137.69S479,146.44,458.72,147.28Zm9.45-47.22c7.83,3.18,5.07,22.14-24.21,21.63C445,105.41,457.39,95.7,468.17,100.06Z"/><path class="cls-1" d="M826.35,147.17c-15.46.64-15.85-15.07-15.85-15.07l6,.59c.68,0,1.47,0,2.42,0l1.7-.08c.61,0,1.21,0,1.85-.08a64,64,0,0,0,17.74-3.69,31,31,0,0,0,8.59-4.59,23.86,23.86,0,0,0,6.31-7.42A22.3,22.3,0,0,0,857.58,106,24.36,24.36,0,0,0,856.26,98a16.89,16.89,0,0,0-4.2-6.55,20.22,20.22,0,0,0-7.6-4.48,35.16,35.16,0,0,0-11.54-1.68,39.31,39.31,0,0,0-14.67,2.51,33.38,33.38,0,0,0-17.51,15.54,56.35,56.35,0,0,0-4.2,10.17,58.06,58.06,0,0,0-2,9.93,71.28,71.28,0,0,0-.53,8.28c0,6.28.94,11.5,2.87,15.62a28,28,0,0,0,7.41,10,27.21,27.21,0,0,0,10.22,5.26A46,46,0,0,0,826,164.05a44.44,44.44,0,0,0,8.43-.75c13.43-2.74,19.86-6.51,19.86-6.51l3.32-1.49V137.6S846.64,146.33,826.35,147.17ZM835.8,100c7.83,3.18,5.07,22.1-24.21,21.59C812.62,105.37,825,95.68,835.8,100Z"/><path class="cls-2" d="M263,34.69S281,40.91,277.65,64"/><path class="cls-2" d="M270.94,4.87s38.93,13.47,31.78,63.56"/><path class="cls-2" d="M231.39,34.69s-18,6.22-14.67,29.35"/><path class="cls-2" d="M222,4.87S183,18.34,190.18,68.43"/></g></g></svg>