<svg xmlns="http://www.w3.org/2000/svg" width="118" height="122" viewBox="0 0 118 122">
  <defs>
    <style>
      .cls-1 {
        fill: #fee;
      }

      .cls-2 {
        fill: #e0c4c3;
      }

      .cls-3 {
        fill: #ce0500;
      }

      .cls-4 {
        fill: #d39392;
      }

      .cls-5 {
        fill: #d69594;
      }

      .cls-6 {
        fill: #e8acaa;
      }

      .cls-7 {
        fill: #ff605c;
      }

      .cls-8 {
        fill: #ff9592;
      }

      .cls-9 {
        fill: #ff5955;
      }

      .cls-10 {
        fill: #6b2f2e;
      }

      .cls-11 {
        fill: #511614;
      }

      .cls-12 {
        fill: #4c1514;
      }

      .cls-13 {
        fill: #601715;
      }

      .cls-14 {
        fill: #163f59;
      }

      .cls-15 {
        fill: #ede2e2;
      }

      .cls-16 {
        fill: #f2a9a7;
      }

      .cls-17 {
        fill: #d68b8a;
      }

      .cls-18 {
        fill: #ff7471;
      }

      .cls-19 {
        fill: #ff9997;
      }

      .cls-20 {
        fill: #c4d1e1;
      }

      .cls-21 {
        fill: #e9d6b8;
      }

      .cls-22 {
        fill: #dbe4e9;
      }

      .cls-23 {
        fill: #b6c2c9;
      }

      .cls-24 {
        fill: #d8e5ed;
      }

      .cls-25 {
        fill: #879ba6;
      }

      .cls-26 {
        fill: #d9e1e4;
      }

      .cls-27 {
        fill: #e2c59c;
      }

      .cls-28 {
        fill: #631a18;
      }
    </style>
  </defs>
  <g id="グループ_195" data-name="グループ 195" transform="translate(-170.436 -157.494)">
    <path id="パス_242" data-name="パス 242" class="cls-1" d="M253.082,170.276a89.907,89.907,0,0,1,31.8,40.273c5.155,13.733,4.743,25.471-1.535,33.3-6.34,7.909-17.616,11.18-31.039,12.569-13.416,1.209-28.977.54-43.624-3.578-28.97-7.266-45.218-33.412-35.362-64.38C183.039,157.624,220.987,146.6,253.082,170.276Z"/>
    <g id="グループ_187" data-name="グループ 187" transform="translate(202.355 190.688)">
      <path id="パス_243" data-name="パス 243" class="cls-2" d="M348.765,344.264c2.2,1.987,3.972,6.59,6.606,22.773.088.538,6.336,4.628,6.336,4.628L349.98,374.1l-.271-7.429s.616-4.21.543-16.558A12.656,12.656,0,0,0,348.765,344.264Z" transform="translate(-348.757 -344.26)"/>
    </g>
    <g id="グループ_188" data-name="グループ 188" transform="translate(170.56 219.042)">
      <path id="パス_244" data-name="パス 244" class="cls-3" d="M176.207,534.025a4.615,4.615,0,0,1-3.057-1.106c-1.537-1.336-2.2-3.712-1.978-7.062a24.51,24.51,0,0,1,1.984-6.974c1.586-4.076,3.382-8.7,2.442-14.81l1.746-.269c1.012,6.58-.959,11.647-2.541,15.719a22.949,22.949,0,0,0-1.869,6.451c-.182,2.716.289,4.651,1.36,5.6a2.927,2.927,0,0,0,2.334.656l.353,1.731A4.073,4.073,0,0,1,176.207,534.025Z" transform="translate(-171.129 -503.805)"/>
    </g>
    <g id="グループ_189" data-name="グループ 189" transform="translate(176.332 263.018)">
      <path id="パス_245" data-name="パス 245" class="cls-4" d="M216.177,750.586l1.721,2.623-14.451,4.63s-.965-.923,2.582-2.777C210.156,752.9,216.177,750.586,216.177,750.586Z" transform="translate(-203.327 -750.586)"/>
      <path id="パス_246" data-name="パス 246" class="cls-4" d="M281.459,750.586l-1.721,2.623,14.45,4.63s.964-.923-2.582-2.777C287.477,752.9,281.459,750.586,281.459,750.586Z" transform="translate(-266.041 -750.586)"/>
    </g>
    <rect id="長方形_154" data-name="長方形 154" class="cls-5" width="3.021" height="10.751" transform="translate(188.954 255.214)"/>
    <g id="グループ_190" data-name="グループ 190" transform="translate(177.99 263.571)">
      <path id="パス_247" data-name="パス 247" class="cls-6" d="M223.575,753.674l1.475,2.5-12.368,4.417s-.827-.881,2.207-2.651C218.423,755.883,223.575,753.674,223.575,753.674Z" transform="translate(-212.578 -753.674)"/>
      <path id="パス_248" data-name="パス 248" class="cls-6" d="M283.67,753.674l-1.47,2.5,12.369,4.417s.824-.881-2.21-2.651A96.653,96.653,0,0,0,283.67,753.674Z" transform="translate(-269.72 -753.674)"/>
    </g>
    <path id="パス_249" data-name="パス 249" class="cls-3" d="M211.352,793.018a1.049,1.049,0,1,1-1.048-1.05A1.048,1.048,0,0,1,211.352,793.018Z" transform="translate(-31.86 -521.532)"/>
    <path id="パス_250" data-name="パス 250" class="cls-3" d="M345.046,793.018a1.05,1.05,0,1,1-1.05-1.05A1.049,1.049,0,0,1,345.046,793.018Z" transform="translate(-141.628 -521.532)"/>
    <path id="パス_251" data-name="パス 251" class="cls-3" d="M197.182,793.018a1.049,1.049,0,1,1-1.049-1.05A1.048,1.048,0,0,1,197.182,793.018Z" transform="translate(-20.23 -521.532)"/>
    <path id="パス_252" data-name="パス 252" class="cls-3" d="M359.218,793.018a1.049,1.049,0,1,1-1.05-1.05A1.048,1.048,0,0,1,359.218,793.018Z" transform="translate(-153.264 -521.532)"/>
    <rect id="長方形_155" data-name="長方形 155" class="cls-3" width="2.21" height="3.865" transform="translate(189.321 251.436)"/>
    <path id="パス_253" data-name="パス 253" class="cls-3" d="M272.079,663.817a2.153,2.153,0,0,1-2.154,2.153H268.71a2.152,2.152,0,0,1-2.152-2.153h0a2.152,2.152,0,0,1,2.152-2.153h1.216a2.153,2.153,0,0,1,2.154,2.153Z" transform="translate(-78.892 -414.398)"/>
    <path id="パス_254" data-name="パス 254" class="cls-7" d="M222.827,638.583c.053-.253.083-1.843.083-2.116,0-1.74-1.124-3.148-2.51-3.148H192.425c-1.386,0-2.511,1.409-2.511,3.148,0,.274.031,1.864.084,2.116Z" transform="translate(-15.987 -391.104)"/>
    <path id="パス_255" data-name="パス 255" class="cls-3" d="M188.472,663.034c0,.532.313.964.695.964H221.29c.384,0,.7-.432.7-.964h0c0-.532-.313-.964-.7-.964H189.167c-.382,0-.695.432-.695.964Z" transform="translate(-14.803 -414.72)"/>
    <path id="パス_256" data-name="パス 256" class="cls-8" d="M196.608,486.6c.692.051,5.076.128,5.832.137,4.8.059,8.934-.843,9.165-2.025a40.99,40.99,0,0,0,.123-14.866c-.2-1.181-4.4-2.082-9.3-2.022-.771.009-5.246.088-5.949.138A40.176,40.176,0,0,1,196.608,486.6Z" transform="translate(-21.373 -255.12)"/>
    <path id="パス_257" data-name="パス 257" class="cls-3" d="M189.651,468.6c-.54.006-.913.262-.839.57a40.133,40.133,0,0,1,.152,17.5c-.07.308.3.563.829.569h0c.526.007,1.013-.239,1.08-.548a40.21,40.21,0,0,0-.115-17.544c-.072-.309-.567-.555-1.106-.548Z" transform="translate(-15.074 -255.761)"/>
    <path id="パス_258" data-name="パス 258" class="cls-9" d="M191.661,486.9a11.819,11.819,0,0,0,1.259.084,2.526,2.526,0,0,0,2.33-2.072,40.281,40.281,0,0,0-.067-14.64,2.576,2.576,0,0,0-2.388-2.071,12.29,12.29,0,0,0-1.283.084A40.184,40.184,0,0,1,191.661,486.9Z" transform="translate(-17.298 -255.436)"/>
    <rect id="長方形_156" data-name="長方形 156" class="cls-10" width="7.022" height="4.608" transform="translate(201.569 264.879) rotate(-59.673)"/>
    <path id="パス_259" data-name="パス 259" class="cls-11" d="M362.151,591.674l-14.408,28.154,4.945,2.107s17.481-26.585,16.3-28.629S362.888,590.41,362.151,591.674Z" transform="translate(-145.573 -356.653)"/>
    <path id="パス_260" data-name="パス 260" class="cls-12" d="M339.65,758.508l2.9,1.7.518-.884.745,1.621,7.324,4.286s.575-1.272-4.237-4.344c-1.237-.788-1.114-3.023-1.114-3.023s-.3-.938-2.02-.167c-.45.2-2.719-2.015-2.719-2.015A7.151,7.151,0,0,0,339.65,758.508Z" transform="translate(-138.925 -491.751)"/>
    <path id="パス_261" data-name="パス 261" class="cls-11" d="M209.435,477.11s-2.98,9.183-4.914,11.978a16.569,16.569,0,0,0-2.458,7.986c.154,1.842.322,7.817,3.533,8.138a108.458,108.458,0,0,0,13.359-.153s5.068-13.053,4.915-14.742-1.233-3.708-1.46-4.541,1.306-4.059,1.306-4.059Z" transform="translate(-25.947 -262.802)"/>
    <g id="グループ_191" data-name="グループ 191" transform="translate(193.431 222.931)">
      <path id="パス_262" data-name="パス 262" class="cls-11" d="M298.939,535.369l24.638,12.84s8.531-8.694,5-11c-6.835-4.457-26.644-11.758-26.644-11.758Z" transform="translate(-298.939 -525.453)"/>
    </g>
    <path id="パス_263" data-name="パス 263" class="cls-10" d="M440.293,774.677l.36,6.638,5.194-.169-1.359-7.536Z" transform="translate(-221.549 -506.466)"/>
    <path id="パス_264" data-name="パス 264" class="cls-13" d="M211.361,574.815l32.569-.113s5.977-2.652,3.089-6.134c-1.85-2.231-24.381-6.577-30.9-6.653C202.916,561.761,211.361,574.815,211.361,574.815Z" transform="translate(-31.406 -332.447)"/>
    <path id="パス_265" data-name="パス 265" class="cls-13" d="M377.707,610.031l10.585,31.862,6.065-2.629s-5.021-32.493-8.663-33.381S377.457,608.989,377.707,610.031Z" transform="translate(-170.164 -368.699)"/>
    <path id="パス_266" data-name="パス 266" class="cls-12" d="M441.295,803.367l3.53.11.032-1.074,1.5,1.121,8.9.277s-.108-1.463-6.085-1.88c-1.535-.106-2.543-2.229-2.543-2.229s-.745-.714-1.947.86c-.312.41-3.518-.492-3.518-.492A7.5,7.5,0,0,0,441.295,803.367Z" transform="translate(-222.162 -527.739)"/>
    <rect id="長方形_157" data-name="長方形 157" class="cls-14" width="0.697" height="3.071" transform="translate(180.5 222.222) rotate(-2.426)"/>
    <path id="パス_267" data-name="パス 267" class="cls-15" d="M224.64,334.542c-6.065-.366-13.61,1.21-14.808,5.51-1.388,4.985-.417,22.429-4.872,33.235-.168.406.115,1.574.943,1.483,4.8-.533,19.412-.674,19.412-.674l6.739-16.985,1.077-9.032s.676-10.613-2.828-12.685C229.5,334.923,226.91,334.68,224.64,334.542Z" transform="translate(-28.298 -145.573)"/>
    <path id="パス_268" data-name="パス 268" class="cls-16" d="M757.92,587.008h3.491l-5.759-55.8h-5.064Z" transform="translate(-476.308 -307.514)"/>
    <path id="パス_269" data-name="パス 269" class="cls-17" d="M752.462,533.78l2.221,16.9,2.636-18.212-.129-1.258h-4.427Z" transform="translate(-477.847 -307.237)"/>
    <path id="パス_270" data-name="パス 270" class="cls-16" d="M496.915,587.008h3.491l-5.762-55.8h-5.062Z" transform="translate(-262.018 -307.514)"/>
    <path id="パス_271" data-name="パス 271" class="cls-17" d="M491.467,533.78l2.221,16.9,2.634-18.212-.131-1.258h-4.425Z" transform="translate(-263.562 -307.237)"/>
    <path id="パス_272" data-name="パス 272" class="cls-16" d="M309.956,587.008h-3.494l5.762-55.8h5.064Z" transform="translate(-111.677 -307.514)"/>
    <path id="パス_273" data-name="パス 273" class="cls-17" d="M333.948,533.78,327.173,551l1.921-18.534.129-1.258h4.426Z" transform="translate(-128.68 -307.239)"/>
    <rect id="長方形_158" data-name="長方形 158" class="cls-18" width="42.102" height="3.261" transform="translate(195.644 222.241)"/>
    <rect id="長方形_159" data-name="長方形 159" class="cls-19" width="47.805" height="3.261" transform="translate(235.7 222.241)"/>
    <path id="パス_274" data-name="パス 274" class="cls-20" d="M404.181,479.622a7.122,7.122,0,0,1,3.4.942c1.193.733,2.288,2.33,1.193,3.194a17.954,17.954,0,0,1-2.784,1.67S401.808,485.542,404.181,479.622Z" transform="translate(-191.304 -264.775)"/>
    <path id="パス_275" data-name="パス 275" class="cls-21" d="M268.413,454.063S272.09,460.1,279,461.028c1.2.16,2.066,1.206,1.56,1.632-.648.546-1.612.758-3.286.948-3.489.395-8.374-.037-12.065-2.527-5.46-3.688-7.266-5.442-7.077-7.638S268.413,454.063,268.413,454.063Z" transform="translate(-71.968 -242.586)"/>
    <path id="パス_276" data-name="パス 276" class="cls-2" d="M232.59,343.581c-1.116,2.259-1.456,5.722-.763,10.54.537,3.73,4.964,9.426,5.777,11.242.135.3.541,1.624.541,1.624l4.445,3.044,7.235-5.763-2.882-3.061-.708.15a10.285,10.285,0,0,1-.695-2.521c.023-.73-3.656-10.087-5.676-16.122C238.7,339.236,233.695,341.339,232.59,343.581Z" transform="translate(-50.092 -150.78)"/>
    <path id="パス_277" data-name="パス 277" class="cls-22" d="M282.289,451.348l2.215-.913.91-.318a1.632,1.632,0,0,0,.755.906l-1.79.4-2.013.819-2.243,1.809Z" transform="translate(-90.052 -240.518)"/>
    <path id="パス_278" data-name="パス 278" class="cls-21" d="M368.356,487.152l2.718-3.147s1.775.46,1.8.865,1.444,1.938,1.444,1.938l-.7,2.349-1.6.536s-.468-.443-.058-.808-.553-.127-.875-.08S368.183,489.323,368.356,487.152Z" transform="translate(-162.483 -268.378)"/>
    <g id="グループ_194" data-name="グループ 194" transform="translate(201.022 204.578)">
      <path id="パス_279" data-name="パス 279" class="cls-23" d="M341.38,510.661a.132.132,0,0,1-.013-.023v-.73l30.194-.549.014.729a.053.053,0,0,1,0,.024l-.077.135a1.984,1.984,0,0,1-1.869.782l-26.276.478a1.99,1.99,0,0,1-1.9-.711Z" transform="translate(-341.367 -493.727)"/>
      <path id="パス_280" data-name="パス 280" class="cls-24" d="M349.957,513.875a.147.147,0,0,1,0,.02l-.073.113a1.229,1.229,0,0,1-.436.379l-4.593.082a2.085,2.085,0,0,1-1.818-.57l-.077-.11-.013-.019v-.356l7-.128Z" transform="translate(-342.664 -496.951)"/>
      <g id="グループ_192" data-name="グループ 192" transform="translate(11.354 15.87)">
        <rect id="長方形_160" data-name="長方形 160" class="cls-25" width="15.092" height="0.514" transform="matrix(1, -0.018, 0.018, 1, 0, 0.274)"/>
      </g>
      <g id="グループ_193" data-name="グループ 193" transform="translate(7.443)">
        <path id="パス_281" data-name="パス 281" class="cls-26" d="M382.892,438.172l3.644-14.91a.985.985,0,0,1,.882-.724l21.185-.386a.526.526,0,0,1,.533.7l-3.643,14.908Z" transform="translate(-382.892 -422.151)"/>
        <path id="パス_282" data-name="パス 282" class="cls-23" d="M448.751,460.507a1.022,1.022,0,0,0,1.034,1.355,1.91,1.91,0,0,0,1.708-1.4,1.022,1.022,0,0,0-1.034-1.355A1.91,1.91,0,0,0,448.751,460.507Z" transform="translate(-436.912 -452.481)"/>
      </g>
    </g>
    <path id="パス_283" data-name="パス 283" class="cls-27" d="M299.894,275.752c-.16,1.43-1.091,2.661-2.048,2.712q-1.364-.012-2.729-.028c-.961-.071-1.858-1.322-1.982-2.753q-.288-3.548-.581-7.093c-.128-1.417.564-4.254,2.027-5.08a4.185,4.185,0,0,1,4.18.044c1.44.856,2.062,3.706,1.9,5.12Q300.273,272.211,299.894,275.752Z" transform="translate(-100.246 -86.709)"/>
    <path id="パス_284" data-name="パス 284" class="cls-2" d="M292.577,330.936l-1.9,3.348-6.688-4.123,1.575-1.843Z" transform="translate(-93.229 -140.41)"/>
    <path id="パス_285" data-name="パス 285" class="cls-2" d="M330.975,336.476l-.528,1.211,1.606,2.686.136-2.131Z" transform="translate(-131.366 -147.112)"/>
    <path id="パス_286" data-name="パス 286" class="cls-28" d="M329.617,249.211l.407-1.714.784.152,2.066.4,1.249.243a2.321,2.321,0,0,1,1.96,2.742l-.41,1.712-.783-.153-2.068-.4-1.249-.242A2.319,2.319,0,0,1,329.617,249.211Z" transform="translate(-130.639 -73.87)"/>
    <path id="パス_287" data-name="パス 287" class="cls-21" d="M293.9,261.772a2.062,2.062,0,0,0,1.744,2.435l5.038.979a2.28,2.28,0,0,0,2.7-1.572l2.166-9.1a2.062,2.062,0,0,0-1.743-2.438l-5.038-.979a2.283,2.283,0,0,0-2.7,1.575Z" transform="translate(-101.323 -76.784)"/>
    <path id="パス_288" data-name="パス 288" class="cls-28" d="M301.191,247.083a2.74,2.74,0,0,0-2.331.615l-.857-.167a1.991,1.991,0,0,0-2.351,1.372l-1.03,4.318,1.362.265.419-1.757a1.4,1.4,0,0,1,1.653-.964l.794.154,2.067.4,1.248.242a2.562,2.562,0,0,0,3.033-1.77l.44-1.845Z" transform="translate(-101.957 -73.487)"/>
    <path id="パス_289" data-name="パス 289" class="cls-21" d="M290.3,283.615a1.1,1.1,0,0,0-.93-1.3l-.1-.018a1.215,1.215,0,0,0-1.44.838l-.308,1.3a1.1,1.1,0,0,0,.928,1.3l.1.018a1.281,1.281,0,0,0,1.238-.428" transform="translate(-96.103 -102.559)"/>
  </g>
</svg>
