<svg xmlns="http://www.w3.org/2000/svg" xmlns:xlink="http://www.w3.org/1999/xlink" width="236.863" height="210.021" viewBox="0 0 236.863 210.021">
  <defs>
    <style>
      .cls-1 {
        fill: none;
      }

      .cls-2 {
        fill: #fee;
      }

      .cls-3 {
        isolation: isolate;
      }

      .cls-4 {
        clip-path: url(#clip-path);
      }

      .cls-5 {
        fill: #8f8f8f;
      }

      .cls-6 {
        fill: #949494;
      }

      .cls-7 {
        fill: #999;
      }

      .cls-8 {
        clip-path: url(#clip-path-2);
      }

      .cls-9 {
        fill: #858585;
      }

      .cls-10 {
        fill: #8a8a8a;
      }

      .cls-11 {
        clip-path: url(#clip-path-3);
      }

      .cls-12 {
        fill: #9e9e9e;
      }

      .cls-13 {
        fill: #fec00f;
      }

      .cls-14 {
        fill: #adadad;
      }

      .cls-15 {
        fill: gray;
      }

      .cls-16 {
        clip-path: url(#clip-path-4);
      }

      .cls-17 {
        clip-path: url(#clip-path-5);
      }

      .cls-18 {
        clip-path: url(#clip-path-6);
      }

      .cls-19 {
        fill: #979797;
      }

      .cls-20 {
        clip-path: url(#clip-path-7);
      }

      .cls-21 {
        clip-path: url(#clip-path-8);
      }

      .cls-22 {
        clip-path: url(#clip-path-9);
      }

      .cls-23 {
        clip-path: url(#clip-path-10);
      }

      .cls-24 {
        clip-path: url(#clip-path-11);
      }

      .cls-25 {
        fill: #9c9c9c;
      }

      .cls-26 {
        fill: #ed817e;
      }

      .cls-27 {
        fill: #b5b5b5;
      }

      .cls-28 {
        fill: #a3abae;
      }

      .cls-29 {
        clip-path: url(#clip-path-12);
      }

      .cls-30 {
        fill: #9ea4a7;
      }

      .cls-31 {
        clip-path: url(#clip-path-13);
      }

      .cls-32 {
        fill: #959b9d;
      }

      .cls-33 {
        fill: #98a0a2;
      }

      .cls-34 {
        fill: #a1a9ac;
      }

      .cls-35 {
        fill: #a6aeb1;
      }

      .cls-36 {
        fill: #aab3b6;
      }

      .cls-37 {
        clip-path: url(#clip-path-14);
      }

      .cls-38 {
        clip-path: url(#clip-path-15);
      }

      .cls-39 {
        clip-path: url(#clip-path-16);
      }

      .cls-40 {
        clip-path: url(#clip-path-17);
      }

      .cls-41 {
        clip-path: url(#clip-path-18);
      }

      .cls-42 {
        fill: #aab1b4;
      }

      .cls-43 {
        clip-path: url(#clip-path-19);
      }

      .cls-44 {
        clip-path: url(#clip-path-20);
      }

      .cls-45 {
        clip-path: url(#clip-path-21);
      }

      .cls-46 {
        clip-path: url(#clip-path-22);
      }

      .cls-47 {
        fill: #eb564c;
      }

      .cls-48 {
        fill: #601715;
      }

      .cls-49 {
        fill: #e0c4c3;
      }

      .cls-50 {
        fill: #ede2e2;
      }

      .cls-51 {
        fill: #e2c59c;
      }

      .cls-52 {
        fill: #631a18;
      }

      .cls-53 {
        fill: #e9d6b8;
      }

      .cls-54 {
        fill: #161711;
      }

      .cls-55 {
        fill: #511614;
      }

      .cls-56 {
        fill: #b6c2c9;
      }

      .cls-57 {
        fill: #879ba6;
      }

      .cls-58 {
        fill: #e4eef3;
      }

      .cls-59 {
        fill: #ccb6b6;
      }
    </style>
    <clipPath id="clip-path">
      <path id="パス_296" data-name="パス 296" class="cls-1" d="M515.935,535.294c.058.545.112,1.094.166,1.638a5.816,5.816,0,0,1-.872,3.587,1.748,1.748,0,0,0-.244,1.042.363.363,0,0,1-.007-.081c-.024-.244-.052-.488-.074-.736a.392.392,0,0,1-.009-.081c0-.049-.012-.114-.017-.164-.021-.191-.04-.381-.058-.573a1.742,1.742,0,0,1,.244-1.042A5.859,5.859,0,0,0,515.935,535.294Z" transform="translate(-514.811 -535.294)"/>
    </clipPath>
    <clipPath id="clip-path-2">
      <path id="パス_302" data-name="パス 302" class="cls-1" d="M452.389,552.267l.166,1.635a1.687,1.687,0,0,0-.487-1,3.833,3.833,0,0,0-2.631-.98c-3.654-.093-7.048-1.244-9.052-3.349a5.742,5.742,0,0,1-1.664-3.416c-.059-.546-.111-1.091-.168-1.636a5.806,5.806,0,0,0,1.663,3.416c2.01,2.1,5.4,3.253,9.054,3.345a3.83,3.83,0,0,1,2.629.982A1.637,1.637,0,0,1,452.389,552.267Z" transform="translate(-438.553 -543.519)"/>
    </clipPath>
    <clipPath id="clip-path-3">
      <path id="パス_318" data-name="パス 318" class="cls-1" d="M708.538,561.8c.054.546.112,1.091.169,1.635.292,2.9-1.9,5.955-6.056,7.783a18.479,18.479,0,0,1-10.815,1.152,5.468,5.468,0,0,0-3.15.339c-1.231.54-1.875,1.441-1.786,2.3-.056-.547-.111-1.091-.167-1.639-.087-.858.556-1.761,1.786-2.3a5.479,5.479,0,0,1,3.151-.342,18.453,18.453,0,0,0,10.819-1.15C706.638,567.759,708.837,564.71,708.538,561.8Z" transform="translate(-686.726 -561.805)"/>
    </clipPath>
    <clipPath id="clip-path-4">
      <path id="パス_323" data-name="パス 323" class="cls-1" d="M325.848,346.936l-.513,1.78a2.172,2.172,0,0,0-.394-1.827,7.341,7.341,0,0,1-1.4-6.224l.508-1.779a7.325,7.325,0,0,0,1.405,6.224A2.2,2.2,0,0,1,325.848,346.936Z" transform="translate(-323.318 -338.886)"/>
    </clipPath>
    <clipPath id="clip-path-5">
      <path id="パス_328" data-name="パス 328" class="cls-1" d="M388.531,363.7c-.238.814-.238.814-.512,1.78a5.94,5.94,0,0,1-.958,1.929c-1.7,2.286-4.914,3.545-8.611,3.671-.2.006-.4.012-.6.012l.51-1.78c.2,0,.4,0,.6-.012,3.7-.128,6.921-1.382,8.613-3.668A6.053,6.053,0,0,0,388.531,363.7Z" transform="translate(-377.847 -363.705)"/>
    </clipPath>
    <clipPath id="clip-path-6">
      <path id="パス_333" data-name="パス 333" class="cls-1" d="M368.227,385.406c.17-.591.341-1.185.509-1.779a1.723,1.723,0,0,1,.284-.568,3.341,3.341,0,0,1,2.67-1.081l-.51,1.78a3.347,3.347,0,0,0-2.671,1.078A1.786,1.786,0,0,0,368.227,385.406Z" transform="translate(-368.227 -381.978)"/>
    </clipPath>
    <clipPath id="clip-path-7">
      <path id="パス_336" data-name="パス 336" class="cls-1" d="M422.43,498.034l-.509,1.779c-.134.057-.281.118-.429.165a3.7,3.7,0,0,1-.527.127l.508-1.777a4.333,4.333,0,0,0,.527-.13A4.5,4.5,0,0,0,422.43,498.034Z" transform="translate(-420.966 -498.034)"/>
    </clipPath>
    <clipPath id="clip-path-8">
      <path id="パス_338" data-name="パス 338" class="cls-1" d="M419.931,498.992l-.508,1.777a4.219,4.219,0,0,1-.684.075l.508-1.779A4.731,4.731,0,0,0,419.931,498.992Z" transform="translate(-418.74 -498.992)"/>
    </clipPath>
    <clipPath id="clip-path-9">
      <path id="パス_341" data-name="パス 341" class="cls-1" d="M415.081,498.708l-.508,1.779a13.743,13.743,0,0,1-1.847-.232l.506-1.779A13.432,13.432,0,0,0,415.081,498.708Z" transform="translate(-412.727 -498.477)"/>
    </clipPath>
    <clipPath id="clip-path-10">
      <path id="パス_346" data-name="パス 346" class="cls-1" d="M406.142,492.838l-.506,1.779a7.586,7.586,0,0,1-.907-.328,4.144,4.144,0,0,1-2.236-2.171l.509-1.779a4.154,4.154,0,0,0,2.234,2.17A6.9,6.9,0,0,0,406.142,492.838Z" transform="translate(-402.494 -490.338)"/>
    </clipPath>
    <clipPath id="clip-path-11">
      <path id="パス_356" data-name="パス 356" class="cls-1" d="M316.134,467.133a.282.282,0,0,1,.023-.088q.24-.848.484-1.691a5.99,5.99,0,0,1,.96-1.931c1.7-2.29,4.92-3.548,8.619-3.678a20.747,20.747,0,0,1,9.306,1.936c4,1.847,6.689,4.631,7.639,7.452l-.509,1.779c-.949-2.818-3.645-5.6-7.637-7.452a20.733,20.733,0,0,0-9.309-1.935c-3.7.126-6.921,1.387-8.617,3.68A6,6,0,0,0,316.134,467.133Z" transform="translate(-316.134 -459.733)"/>
    </clipPath>
    <clipPath id="clip-path-12">
      <path id="パス_364" data-name="パス 364" class="cls-1" d="M790.738,223.271c-.268-.478-.541-.957-.807-1.435a1.107,1.107,0,0,1-.092-.186l.807,1.432A1.943,1.943,0,0,0,790.738,223.271Z" transform="translate(-789.839 -221.65)"/>
    </clipPath>
    <clipPath id="clip-path-13">
      <path id="パス_374" data-name="パス 374" class="cls-1" d="M674.644,304.88c.268.478.537.957.809,1.432-1.8-3.185-6.84-4.129-12.259-2.014a18.506,18.506,0,0,0-6.8,4.589c-2.282,2.484-3.493,5.39-3.017,7.923a5.283,5.283,0,0,0,.589,1.64l-.809-1.435a5.249,5.249,0,0,1-.589-1.634c-.475-2.537.737-5.444,3.017-7.925a18.449,18.449,0,0,1,6.8-4.591C667.8,300.75,672.846,301.692,674.644,304.88Z" transform="translate(-652.465 -301.731)"/>
    </clipPath>
    <clipPath id="clip-path-14">
      <path id="パス_391" data-name="パス 391" class="cls-1" d="M821.81,202.826c.212.384.428.765.647,1.15.052.093.108.187.161.282a5.384,5.384,0,0,1,.594,1.644c.474,2.538-.743,5.44-3.025,7.926a18.425,18.425,0,0,1-6.8,4.592c-3.658,1.427-7.122,1.449-9.564.349a3.734,3.734,0,0,0-2.778.108,5.515,5.515,0,0,0-2.01,1.355,3.17,3.17,0,0,0-.93,2.04l-.809-1.432a3.152,3.152,0,0,1,.934-2.04,5.424,5.424,0,0,1,2.008-1.357,3.733,3.733,0,0,1,2.779-.1c2.439,1.1,5.9,1.075,9.56-.354a18.425,18.425,0,0,0,6.8-4.59c2.285-2.484,3.5-5.387,3.025-7.925A5.375,5.375,0,0,0,821.81,202.826Z" transform="translate(-797.302 -202.826)"/>
    </clipPath>
    <clipPath id="clip-path-15">
      <path id="パス_395" data-name="パス 395" class="cls-1" d="M675.817,364.281l.809,1.432a1.436,1.436,0,0,1,.168.475,2.321,2.321,0,0,1,.027.437l-.807-1.43a2.193,2.193,0,0,0-.026-.439A1.654,1.654,0,0,0,675.817,364.281Z" transform="translate(-675.817 -364.281)"/>
    </clipPath>
    <clipPath id="clip-path-16">
      <path id="パス_397" data-name="パス 397" class="cls-1" d="M676.28,367.257l.807,1.43a3.6,3.6,0,0,1-.079.455l-.808-1.434C676.22,367.608,676.244,367.509,676.28,367.257Z" transform="translate(-676.201 -367.257)"/>
    </clipPath>
    <clipPath id="clip-path-17">
      <path id="パス_399" data-name="パス 399" class="cls-1" d="M674.351,368.726l.808,1.434a5.3,5.3,0,0,1-.818,1.414l-.81-1.431A5.521,5.521,0,0,0,674.351,368.726Z" transform="translate(-673.531 -368.726)"/>
    </clipPath>
    <clipPath id="clip-path-18">
      <path id="パス_401" data-name="パス 401" class="cls-1" d="M672.722,373.338l.81,1.431c-.159.169-.26.26-.364.359l-.8-1.434C672.463,373.6,672.565,373.5,672.722,373.338Z" transform="translate(-672.364 -373.338)"/>
    </clipPath>
    <clipPath id="clip-path-19">
      <path id="パス_405" data-name="パス 405" class="cls-1" d="M671.39,374.5l.8,1.434c-.166.144-.293.247-.427.352l-.809-1.434C671.093,374.745,671.219,374.646,671.39,374.5Z" transform="translate(-670.958 -374.496)"/>
    </clipPath>
    <clipPath id="clip-path-20">
      <path id="パス_407" data-name="パス 407" class="cls-1" d="M714.5,353.8l.81,1.431c-.627-.49-.678-.558-.725-.632l-.806-1.43C713.823,353.236,713.876,353.3,714.5,353.8Z" transform="translate(-713.779 -353.164)"/>
    </clipPath>
    <clipPath id="clip-path-21">
      <path id="パス_409" data-name="パス 409" class="cls-1" d="M717.245,355.473l.81,1.433a3.784,3.784,0,0,1-.457-.044,2.441,2.441,0,0,1-.663-.211l-.81-1.431a2.532,2.532,0,0,0,.666.208A3.256,3.256,0,0,0,717.245,355.473Z" transform="translate(-716.125 -355.22)"/>
    </clipPath>
    <clipPath id="clip-path-22">
      <path id="パス_411" data-name="パス 411" class="cls-1" d="M720.216,355.994l.807,1.435c-.15.009-.3.017-.442.013l-.81-1.433A3.768,3.768,0,0,0,720.216,355.994Z" transform="translate(-719.771 -355.994)"/>
    </clipPath>
  </defs>
  <g id="グループ_284" data-name="グループ 284" transform="translate(-110.754 -161.302)">
    <path id="パス_290" data-name="パス 290" class="cls-2" d="M238.888,183.756c35.178-6.762,69.46-1.2,93.984,9.133,24.769,10.565,39.771,25.906,42.1,44.006,2.356,18.275-7.747,37.168-23.089,56.5-15.569,19.1-36.366,38.631-60.56,52.623-46.689,28.778-102.074,17.088-130.436-34.872C132.514,259.535,166.492,195.939,238.888,183.756Z" transform="translate(-27.817 -13.505)"/>
    <g id="グループ_209" data-name="グループ 209" transform="translate(199.53 269.404)">
      <g id="グループ_208" data-name="グループ 208" class="cls-3" transform="translate(0)">
        <g id="グループ_198" data-name="グループ 198" class="cls-3" transform="translate(35.317 6.758)">
          <g id="グループ_197" data-name="グループ 197" class="cls-4">
            <g id="グループ_196" data-name="グループ 196" class="cls-3" transform="translate(-0.001)">
              <path id="パス_291" data-name="パス 291" class="cls-5" d="M518.381,535.294l.166,1.638a5.168,5.168,0,0,1-.04,1.364l-.166-1.638a5.406,5.406,0,0,0,.04-1.363" transform="translate(-517.256 -535.294)"/>
              <path id="パス_292" data-name="パス 292" class="cls-6" d="M517.323,539.733l.166,1.638a6.064,6.064,0,0,1-.454,1.492l-.163-1.636a6.182,6.182,0,0,0,.451-1.494" transform="translate(-516.238 -538.37)"/>
              <path id="パス_293" data-name="パス 293" class="cls-7" d="M515.8,544.6l.163,1.636a6.315,6.315,0,0,1-.379.732c-.037.063-.065.127-.1.188l-.163-1.636a1.928,1.928,0,0,1,.094-.187,7,7,0,0,0,.381-.732" transform="translate(-515.165 -541.739)"/>
              <path id="パス_294" data-name="パス 294" class="cls-6" d="M515.011,547.59l.163,1.636a1.886,1.886,0,0,0-.136.451l-.166-1.635a1.76,1.76,0,0,1,.139-.452" transform="translate(-514.852 -543.814)"/>
              <path id="パス_295" data-name="パス 295" class="cls-5" d="M514.827,549.061l.166,1.635a1.711,1.711,0,0,0-.011.4l-.166-1.636a1.519,1.519,0,0,1,.011-.4" transform="translate(-514.808 -544.833)"/>
            </g>
          </g>
        </g>
        <g id="グループ_201" data-name="グループ 201" class="cls-3" transform="translate(11.897 9.284)">
          <g id="グループ_200" data-name="グループ 200" class="cls-8">
            <g id="グループ_199" data-name="グループ 199" class="cls-3">
              <path id="パス_297" data-name="パス 297" class="cls-9" d="M478.829,567.814l.166,1.635a1.687,1.687,0,0,0-.487-1,3.261,3.261,0,0,0-1.628-.852l-.167-1.637a3.247,3.247,0,0,1,1.626.852,1.636,1.636,0,0,1,.49,1.005" transform="translate(-464.993 -559.066)"/>
              <path id="パス_298" data-name="パス 298" class="cls-10" d="M475.088,565.7l.167,1.637a5.372,5.372,0,0,0-.72-.113l-.167-1.636a5.943,5.943,0,0,1,.721.112" transform="translate(-463.368 -558.812)"/>
              <path id="パス_299" data-name="パス 299" class="cls-5" d="M471.286,565.425l.167,1.636c-.094-.006-.187-.01-.282-.014-.368-.012-.727-.03-1.083-.059l-.167-1.635c.361.028.724.047,1.084.056.1,0,.192.012.282.018" transform="translate(-460.287 -558.647)"/>
              <path id="パス_300" data-name="パス 300" class="cls-10" d="M464.488,564.5l.167,1.635a17.1,17.1,0,0,1-2.407-.375l-.167-1.637a17.358,17.358,0,0,0,2.407.377" transform="translate(-454.855 -557.797)"/>
              <path id="パス_301" data-name="パス 301" class="cls-9" d="M445.779,549.848l.167,1.637a11.044,11.044,0,0,1-5.561-2.914,5.742,5.742,0,0,1-1.664-3.416l-.168-1.636a5.806,5.806,0,0,0,1.663,3.416,11.131,11.131,0,0,0,5.563,2.913" transform="translate(-438.553 -543.519)"/>
            </g>
          </g>
        </g>
        <g id="グループ_204" data-name="グループ 204" class="cls-3" transform="translate(88.115 14.9)">
          <g id="グループ_203" data-name="グループ 203" class="cls-11">
            <g id="グループ_202" data-name="グループ 202" class="cls-3" transform="translate(0)">
              <path id="パス_303" data-name="パス 303" class="cls-5" d="M757.657,561.8l.169,1.635a5.282,5.282,0,0,1-.042,1.358l-.168-1.634a5.145,5.145,0,0,0,.041-1.36" transform="translate(-735.844 -561.805)"/>
              <path id="パス_304" data-name="パス 304" class="cls-6" d="M756.607,566.232l.168,1.634a5.988,5.988,0,0,1-.449,1.489l-.167-1.637a5.949,5.949,0,0,0,.447-1.486" transform="translate(-734.835 -564.872)"/>
              <path id="パス_305" data-name="パス 305" class="cls-7" d="M753.657,571.07l.167,1.637a7.519,7.519,0,0,1-1.11,1.754l-.166-1.637a7.636,7.636,0,0,0,1.11-1.754" transform="translate(-732.332 -568.224)"/>
              <path id="パス_306" data-name="パス 306" class="cls-12" d="M738.662,576.782l.166,1.637a12.119,12.119,0,0,1-4.455,3.181,16.428,16.428,0,0,1-1.7.638l-.166-1.635a16.61,16.61,0,0,0,1.7-.64,12.12,12.12,0,0,0,4.451-3.18" transform="translate(-718.447 -572.182)"/>
              <path id="パス_307" data-name="パス 307" class="cls-7" d="M726.442,589.221l.166,1.635a18.208,18.208,0,0,1-2.688.632l-.167-1.637a18.185,18.185,0,0,0,2.689-.63" transform="translate(-712.381 -580.801)"/>
              <path id="パス_308" data-name="パス 308" class="cls-6" d="M718.667,591.273l.167,1.637a19.1,19.1,0,0,1-2.256.212l-.166-1.635a18.722,18.722,0,0,0,2.254-.214" transform="translate(-707.295 -582.223)"/>
              <path id="パス_309" data-name="パス 309" class="cls-5" d="M711.444,591.854l.166,1.635a18.63,18.63,0,0,1-2.206-.05l-.162-1.637a18.778,18.778,0,0,0,2.2.052" transform="translate(-702.326 -582.589)"/>
              <path id="パス_310" data-name="パス 310" class="cls-10" d="M703.57,591.005l.162,1.637a17.283,17.283,0,0,1-1.966-.281,4.869,4.869,0,0,0-.543-.074l-.167-1.636c.182.015.363.039.543.071a16.89,16.89,0,0,0,1.971.282" transform="translate(-696.654 -581.793)"/>
              <path id="パス_311" data-name="パス 311" class="cls-5" d="M699.55,590.606l.167,1.636a6.328,6.328,0,0,0-.665-.018l-.169-1.635a5.966,5.966,0,0,1,.668.017" transform="translate(-695.148 -581.747)"/>
              <path id="パス_312" data-name="パス 312" class="cls-6" d="M697.372,590.6l.17,1.635a5.753,5.753,0,0,0-.672.065l-.167-1.638a6.5,6.5,0,0,1,.669-.062" transform="translate(-693.638 -581.754)"/>
              <path id="パス_313" data-name="パス 313" class="cls-7" d="M694.941,590.8l.167,1.638a5.133,5.133,0,0,0-.782.183l-.165-1.637a5.37,5.37,0,0,1,.78-.185" transform="translate(-691.877 -581.894)"/>
              <path id="パス_314" data-name="パス 314" class="cls-12" d="M690.085,591.4l.165,1.637a5.2,5.2,0,0,0-.487.183,3.6,3.6,0,0,0-1.314.939l-.17-1.635a3.565,3.565,0,0,1,1.317-.939,4.317,4.317,0,0,1,.49-.184" transform="translate(-687.801 -582.31)"/>
              <path id="パス_315" data-name="パス 315" class="cls-7" d="M687.544,595.057l.17,1.635a2.1,2.1,0,0,0-.328.52l-.168-1.637a2.41,2.41,0,0,1,.326-.518" transform="translate(-687.066 -584.845)"/>
              <path id="パス_316" data-name="パス 316" class="cls-6" d="M686.925,596.744l.168,1.637a1.544,1.544,0,0,0-.13.437l-.168-1.636a1.788,1.788,0,0,1,.13-.438" transform="translate(-686.773 -586.014)"/>
              <path id="パス_317" data-name="パス 317" class="cls-5" d="M686.746,598.17l.168,1.636a1.343,1.343,0,0,0-.014.409l-.167-1.639a1.526,1.526,0,0,1,.014-.406" transform="translate(-686.724 -587.002)"/>
            </g>
          </g>
        </g>
        <g id="グループ_205" data-name="グループ 205" transform="translate(0)">
          <path id="パス_319" data-name="パス 319" class="cls-13" d="M417.768,514.789c5.864-2.579,13.4-1.747,16.83,1.863a5.5,5.5,0,0,1,.787,6.985,1.624,1.624,0,0,0,.238,2.034c.953,1,2.961,1.27,4.645.675l24.26-10.672,14.161,14.867a4.883,4.883,0,0,0,4.847.421,2.794,2.794,0,0,0,1.745-1.812c.47-2.4,2.557-4.736,5.976-6.242,5.858-2.574,13.389-1.742,16.827,1.866s1.466,8.621-4.389,11.2a18.452,18.452,0,0,1-10.819,1.15,5.478,5.478,0,0,0-3.151.342c-1.665.732-2.252,2.117-1.415,3.174L502.466,555.5l-64.719,28.473-37.931-39.832,24.259-10.673c1.473-.8,1.943-2.153.984-3.156a3.83,3.83,0,0,0-2.629-.982c-3.656-.092-7.044-1.24-9.054-3.345C409.943,522.379,411.914,517.363,417.768,514.789Z" transform="translate(-399.816 -513.29)"/>
        </g>
        <g id="グループ_206" data-name="グループ 206" transform="translate(37.931 42.215)">
          <path id="パス_320" data-name="パス 320" class="cls-14" d="M588.041,650.745l.167,1.636-64.713,28.474-.173-1.637Z" transform="translate(-523.322 -650.745)"/>
        </g>
        <g id="グループ_207" data-name="グループ 207" transform="translate(0 30.856)">
          <path id="パス_321" data-name="パス 321" class="cls-15" d="M437.747,653.591l.173,1.637L399.978,615.4l-.162-1.637Z" transform="translate(-399.816 -613.759)"/>
        </g>
      </g>
    </g>
    <g id="グループ_212" data-name="グループ 212" class="cls-3" transform="translate(176.036 215.841)">
      <g id="グループ_211" data-name="グループ 211" class="cls-16">
        <g id="グループ_210" data-name="グループ 210" class="cls-3">
          <path id="パス_322" data-name="パス 322" class="cls-9" d="M325.848,346.936l-.513,1.78a2.172,2.172,0,0,0-.394-1.827,7.341,7.341,0,0,1-1.4-6.224l.508-1.779a7.325,7.325,0,0,0,1.405,6.224,2.2,2.2,0,0,1,.4,1.826" transform="translate(-323.318 -338.886)"/>
        </g>
      </g>
    </g>
    <g id="グループ_215" data-name="グループ 215" class="cls-3" transform="translate(192.783 223.463)">
      <g id="グループ_214" data-name="グループ 214" class="cls-17" transform="translate(0)">
        <g id="グループ_213" data-name="グループ 213" class="cls-3">
          <path id="パス_324" data-name="パス 324" class="cls-5" d="M410.108,363.7l-.512,1.78a5.573,5.573,0,0,1-.608,1.4l.512-1.778a5.941,5.941,0,0,0,.608-1.4" transform="translate(-399.423 -363.705)"/>
          <path id="パス_325" data-name="パス 325" class="cls-6" d="M407.051,368.276l-.512,1.778a5.856,5.856,0,0,1-.35.527,6.679,6.679,0,0,1-.735.841l.508-1.779a7.559,7.559,0,0,0,.737-.839c.125-.173.246-.35.353-.529" transform="translate(-396.975 -366.872)"/>
          <path id="パス_326" data-name="パス 326" class="cls-7" d="M401.771,372.73l-.508,1.779a8.52,8.52,0,0,1-1.858,1.348l.506-1.778a8.441,8.441,0,0,0,1.86-1.349" transform="translate(-392.784 -369.958)"/>
          <path id="パス_327" data-name="パス 327" class="cls-12" d="M384.974,377.123l-.506,1.778a13.772,13.772,0,0,1-6.018,1.482c-.2.006-.4.012-.6.012l.51-1.78c.2,0,.4,0,.6-.012a13.781,13.781,0,0,0,6.016-1.479" transform="translate(-377.847 -373.002)"/>
        </g>
      </g>
    </g>
    <g id="グループ_218" data-name="グループ 218" class="cls-3" transform="translate(189.828 229.075)">
      <g id="グループ_217" data-name="グループ 217" class="cls-18" transform="translate(0)">
        <g id="グループ_216" data-name="グループ 216" class="cls-3">
          <path id="パス_329" data-name="パス 329" class="cls-12" d="M374.006,381.978l-.51,1.78a4.332,4.332,0,0,0-1.928.452l.508-1.78a4.387,4.387,0,0,1,1.93-.452" transform="translate(-370.542 -381.978)"/>
          <path id="パス_330" data-name="パス 330" class="cls-7" d="M370.885,383.449l-.508,1.78a2.32,2.32,0,0,0-.528.383l.509-1.779a2.406,2.406,0,0,1,.527-.384" transform="translate(-369.351 -382.997)"/>
          <path id="パス_331" data-name="パス 331" class="cls-6" d="M369.633,384.7l-.509,1.779a1.9,1.9,0,0,0-.215.243c-.039.053-.072.106-.106.158l.51-1.779c.032-.053.069-.105.106-.156a1.734,1.734,0,0,1,.213-.245" transform="translate(-368.627 -383.864)"/>
          <path id="パス_332" data-name="パス 332" class="cls-5" d="M368.914,386.007l-.51,1.779a1.678,1.678,0,0,0-.177.412l.509-1.779a1.9,1.9,0,0,1,.178-.411" transform="translate(-368.227 -384.77)"/>
        </g>
      </g>
    </g>
    <g id="グループ_219" data-name="グループ 219" transform="translate(206.981 246.993)">
      <path id="パス_334" data-name="パス 334" class="cls-19" d="M437.708,440.321l-.513,1.78-13.117,17.723.509-1.779Z" transform="translate(-424.078 -440.321)"/>
    </g>
    <g id="グループ_222" data-name="グループ 222" class="cls-3" transform="translate(206.025 264.718)">
      <g id="グループ_221" data-name="グループ 221" class="cls-20">
        <g id="グループ_220" data-name="グループ 220" class="cls-3">
          <path id="パス_335" data-name="パス 335" class="cls-12" d="M422.43,498.034l-.509,1.779c-.134.057-.281.118-.429.165a3.7,3.7,0,0,1-.527.127l.508-1.777a4.333,4.333,0,0,0,.527-.13,4.5,4.5,0,0,0,.43-.164" transform="translate(-420.966 -498.034)"/>
        </g>
      </g>
    </g>
    <g id="グループ_225" data-name="グループ 225" class="cls-3" transform="translate(205.342 265.012)">
      <g id="グループ_224" data-name="グループ 224" class="cls-21" transform="translate(0 0)">
        <g id="グループ_223" data-name="グループ 223" class="cls-3">
          <path id="パス_337" data-name="パス 337" class="cls-12" d="M419.931,498.992l-.508,1.777a4.219,4.219,0,0,1-.684.075l.508-1.779a4.731,4.731,0,0,0,.684-.073" transform="translate(-418.74 -498.992)"/>
        </g>
      </g>
    </g>
    <g id="グループ_228" data-name="グループ 228" class="cls-3" transform="translate(203.495 264.854)">
      <g id="グループ_227" data-name="グループ 227" class="cls-22" transform="translate(0 0)">
        <g id="グループ_226" data-name="グループ 226" class="cls-3">
          <path id="パス_339" data-name="パス 339" class="cls-7" d="M415.228,498.744l-.508,1.779c-1.338-.138-1.631-.18-1.782-.214l.505-1.78c.153.036.447.08,1.784.215" transform="translate(-412.873 -498.513)"/>
          <path id="パス_340" data-name="パス 340" class="cls-6" d="M413.3,498.493l-.505,1.78a.39.39,0,0,1-.065-.018l.506-1.779.064.016" transform="translate(-412.727 -498.477)"/>
        </g>
      </g>
    </g>
    <g id="グループ_231" data-name="グループ 231" class="cls-3" transform="translate(200.352 262.355)">
      <g id="グループ_230" data-name="グループ 230" class="cls-23" transform="translate(0 0)">
        <g id="グループ_229" data-name="グループ 229" class="cls-3">
          <path id="パス_342" data-name="パス 342" class="cls-6" d="M412.105,498.108l-.506,1.779c-.212-.065-.368-.118-.5-.166l.508-1.777c.132.045.287.1.5.164" transform="translate(-408.457 -495.608)"/>
          <path id="パス_343" data-name="パス 343" class="cls-5" d="M410.334,497.4l-.508,1.777c-.162-.054-.281-.107-.408-.162-.053-.025-.1-.05-.157-.078l.51-1.779c.052.027.1.053.154.077.127.057.249.106.408.166" transform="translate(-407.183 -495.061)"/>
          <path id="パス_344" data-name="パス 344" class="cls-10" d="M408.255,496.262l-.51,1.779a5.4,5.4,0,0,1-.673-.4l.513-1.779a5.326,5.326,0,0,0,.67.4" transform="translate(-405.666 -494.169)"/>
          <path id="パス_345" data-name="パス 345" class="cls-9" d="M404.413,492.036l-.513,1.779a3.684,3.684,0,0,1-1.406-1.7l.509-1.779a3.67,3.67,0,0,0,1.41,1.7" transform="translate(-402.494 -490.338)"/>
        </g>
      </g>
    </g>
    <g id="グループ_234" data-name="グループ 234" class="cls-3" transform="translate(173.83 252.955)">
      <g id="グループ_233" data-name="グループ 233" class="cls-24" transform="translate(0)">
        <g id="グループ_232" data-name="グループ 232" class="cls-3" transform="translate(0 0)">
          <path id="パス_347" data-name="パス 347" class="cls-9" d="M392.263,477.22,391.754,479a12.151,12.151,0,0,0-4.761-5.814l.508-1.779a12.153,12.153,0,0,1,4.762,5.814" transform="translate(-365.231 -467.821)"/>
          <path id="パス_348" data-name="パス 348" class="cls-10" d="M382.249,468.312l-.508,1.779a18.836,18.836,0,0,0-2.328-1.37l.508-1.78a18.836,18.836,0,0,1,2.327,1.371" transform="translate(-359.98 -464.727)"/>
          <path id="パス_349" data-name="パス 349" class="cls-5" d="M374.742,464.727l-.508,1.78c-.177-.091-.358-.18-.549-.267q-.865-.4-1.747-.716l.509-1.779q.884.316,1.745.716c.19.086.372.174.55.266" transform="translate(-354.8 -462.513)"/>
          <path id="パス_350" data-name="パス 350" class="cls-6" d="M366.93,462.129l-.509,1.779a21.269,21.269,0,0,0-2.445-.717l.51-1.779a21.235,21.235,0,0,1,2.445.717" transform="translate(-349.283 -460.896)"/>
          <path id="パス_351" data-name="パス 351" class="cls-7" d="M357.523,460.368l-.51,1.779a20.563,20.563,0,0,0-3.086-.463l.515-1.778a20.5,20.5,0,0,1,3.081.463" transform="translate(-342.32 -459.852)"/>
          <path id="パス_352" data-name="パス 352" class="cls-12" d="M336.3,459.786l-.515,1.778a17.945,17.945,0,0,0-2.03-.039,13.675,13.675,0,0,0-6.012,1.48l.511-1.779a13.739,13.739,0,0,1,6.011-1.482,18.582,18.582,0,0,1,2.036.041" transform="translate(-324.176 -459.733)"/>
          <path id="パス_353" data-name="パス 353" class="cls-7" d="M324.041,464.595l-.511,1.779a8.356,8.356,0,0,0-1.867,1.355l.508-1.778a8.331,8.331,0,0,1,1.87-1.356" transform="translate(-319.965 -463.102)"/>
          <path id="パス_354" data-name="パス 354" class="cls-6" d="M319.7,469.009l-.508,1.778a6.9,6.9,0,0,0-.739.845,4.949,4.949,0,0,0-.354.528l.508-1.781c.108-.177.226-.357.354-.529a6.772,6.772,0,0,1,.738-.841" transform="translate(-317.499 -466.16)"/>
          <path id="パス_355" data-name="パス 355" class="cls-5" d="M317.247,473.467l-.508,1.782a5.735,5.735,0,0,0-.605,1.4l.507-1.779a5.959,5.959,0,0,1,.606-1.4" transform="translate(-316.134 -469.249)"/>
        </g>
      </g>
    </g>
    <g id="グループ_235" data-name="グループ 235" transform="translate(186.314 274.905)">
      <path id="パス_357" data-name="パス 357" class="cls-19" d="M370.411,531.2l-.51,1.782L356.786,550.7l.508-1.78Z" transform="translate(-356.786 -531.205)"/>
    </g>
    <g id="グループ_236" data-name="グループ 236" transform="translate(110.754 257.625)">
      <path id="パス_358" data-name="パス 358" class="cls-25" d="M186.822,509.933l-.508,1.78-75.561-35,.508-1.779Z" transform="translate(-110.754 -474.938)"/>
    </g>
    <g id="グループ_237" data-name="グループ 237" transform="translate(111.262 210.222)">
      <path id="パス_359" data-name="パス 359" class="cls-26" d="M187.486,320.6a20.813,20.813,0,0,1,9.318,1.94c6.835,3.166,9.906,9.092,6.848,13.222-1.692,2.286-4.916,3.54-8.613,3.668-.2.009-.4.012-.6.012a3.341,3.341,0,0,0-2.67,1.081c-.851,1.146-.1,2.738,1.664,3.714l28.325,13.123-13.122,17.725a4.5,4.5,0,0,1-.43.164,4.346,4.346,0,0,1-.527.13,4.72,4.72,0,0,1-.684.073,13.412,13.412,0,0,1-1.849-.231,6.894,6.894,0,0,1-.906-.33,4.154,4.154,0,0,1-2.234-2.17c-.951-2.821-3.644-5.6-7.639-7.452a20.747,20.747,0,0,0-9.306-1.936c-3.7.13-6.923,1.388-8.619,3.678-3.063,4.134.013,10.053,6.85,13.221a20.653,20.653,0,0,0,9.28,1.928,16.126,16.126,0,0,0,2.673-.307,4.665,4.665,0,0,1,.752-.08,6.038,6.038,0,0,1,2.731.565,5.088,5.088,0,0,1,.614.332,6.384,6.384,0,0,1,.528.378c.858.94.985,1.166,1.073,1.393a2.633,2.633,0,0,1,.11.4,1.4,1.4,0,0,1,.032.431l-13.117,17.714-75.561-34.995,33.787-45.63,28.322,13.117a6.138,6.138,0,0,0,2.389.411,3.233,3.233,0,0,0,2.534-1.076,2,2,0,0,0-.123-2.381c-1.917-2.72-2.235-5.74-.445-8.15C180.568,321.99,183.786,320.732,187.486,320.6Z" transform="translate(-112.407 -320.591)"/>
    </g>
    <g id="グループ_238" data-name="グループ 238" transform="translate(315.837 161.302)">
      <path id="パス_360" data-name="パス 360" class="cls-27" d="M778.524,161.3l.809,1.432,3.473,18.534L782,179.836Z" transform="translate(-778.524 -161.302)"/>
    </g>
    <g id="グループ_239" data-name="グループ 239" transform="translate(315.837 161.302)">
      <path id="パス_361" data-name="パス 361" class="cls-28" d="M778.524,161.3l.809,1.432,3.473,18.534L782,179.836Z" transform="translate(-778.524 -161.302)"/>
    </g>
    <g id="グループ_240" data-name="グループ 240" transform="translate(319.312 179.836)">
      <path id="パス_362" data-name="パス 362" class="cls-28" d="M789.839,221.65l.807,1.432,2.294,12.234-.809-1.432Z" transform="translate(-789.839 -221.65)"/>
    </g>
    <g id="グループ_243" data-name="グループ 243" class="cls-3" transform="translate(319.312 179.836)">
      <g id="グループ_242" data-name="グループ 242" class="cls-29" transform="translate(0 0)">
        <g id="グループ_241" data-name="グループ 241" class="cls-3">
          <path id="パス_363" data-name="パス 363" class="cls-30" d="M789.839,221.65l.807,1.432a1.943,1.943,0,0,0,.092.189l-.807-1.435a1.107,1.107,0,0,1-.092-.186" transform="translate(-789.839 -221.65)"/>
        </g>
      </g>
    </g>
    <g id="グループ_246" data-name="グループ 246" class="cls-3" transform="translate(277.123 204.43)">
      <g id="グループ_245" data-name="グループ 245" class="cls-31" transform="translate(0 0)">
        <g id="グループ_244" data-name="グループ 244" class="cls-3" transform="translate(0.002 0.001)">
          <path id="パス_365" data-name="パス 365" class="cls-32" d="M703.983,304.883l.809,1.432c-1.45-2.57-5.01-3.679-9.174-2.905l-.809-1.432c4.167-.775,7.721.335,9.175,2.9" transform="translate(-681.806 -301.735)"/>
          <path id="パス_366" data-name="パス 366" class="cls-33" d="M689.549,302.526l.809,1.432a16.6,16.6,0,0,0-2.334.617l-.806-1.432a17.313,17.313,0,0,1,2.331-.617" transform="translate(-676.547 -302.283)"/>
          <path id="パス_367" data-name="パス 367" class="cls-30" d="M682.564,304.534l.806,1.432c-.248.086-.5.177-.75.274q-.671.261-1.3.567l-.814-1.432c.427-.2.863-.392,1.31-.568.249-.1.5-.187.753-.273" transform="translate(-671.893 -303.674)"/>
          <path id="パス_368" data-name="パス 368" class="cls-34" d="M676.044,307.274l.814,1.432a18.912,18.912,0,0,0-1.983,1.1l-.807-1.435a19.454,19.454,0,0,1,1.976-1.1" transform="translate(-667.435 -305.573)"/>
          <path id="パス_369" data-name="パス 369" class="cls-35" d="M669.067,310.86l.806,1.435a18.538,18.538,0,0,0-2.215,1.658l-.808-1.432a17.991,17.991,0,0,1,2.217-1.661" transform="translate(-662.434 -308.058)"/>
          <path id="パス_370" data-name="パス 370" class="cls-36" d="M657.58,316.268l.808,1.432a17.99,17.99,0,0,0-1.3,1.26,12.225,12.225,0,0,0-2.811,4.735l-.807-1.434a12.124,12.124,0,0,1,2.811-4.732,17.209,17.209,0,0,1,1.3-1.261" transform="translate(-653.164 -311.805)"/>
          <path id="パス_371" data-name="パス 371" class="cls-35" d="M652.78,335.782l.807,1.434a7.431,7.431,0,0,0-.307,2.025l-.807-1.435a7.226,7.226,0,0,1,.306-2.024" transform="translate(-652.473 -325.326)"/>
          <path id="パス_372" data-name="パス 372" class="cls-34" d="M652.472,342.373l.807,1.435a5.908,5.908,0,0,0,.1,1.163c.025.133.053.263.087.39l-.806-1.433c-.038-.126-.062-.254-.089-.386a5.909,5.909,0,0,1-.1-1.169" transform="translate(-652.471 -329.892)"/>
          <path id="パス_373" data-name="パス 373" class="cls-30" d="M653.089,347.435l.806,1.433a5.211,5.211,0,0,0,.5,1.251l-.809-1.435a5.007,5.007,0,0,1-.5-1.248" transform="translate(-652.899 -333.4)"/>
        </g>
      </g>
    </g>
    <g id="グループ_249" data-name="グループ 249" class="cls-3" transform="translate(321.604 174.055)">
      <g id="グループ_248" data-name="グループ 248" class="cls-37">
        <g id="グループ_247" data-name="グループ 247" class="cls-3">
          <path id="パス_375" data-name="パス 375" class="cls-30" d="M877.1,202.826l.809,1.432a5.353,5.353,0,0,1,.507,1.265l-.808-1.434a5.188,5.188,0,0,0-.508-1.263" transform="translate(-852.593 -202.826)"/>
          <path id="パス_376" data-name="パス 376" class="cls-34" d="M878.755,206.94l.808,1.434c.032.126.06.253.087.379a6.782,6.782,0,0,1,.1,1.163l-.81-1.434a5.747,5.747,0,0,0-.1-1.161c-.027-.127-.055-.257-.086-.381" transform="translate(-853.739 -205.677)"/>
          <path id="パス_377" data-name="パス 377" class="cls-35" d="M878.665,211.963l.81,1.434a7.657,7.657,0,0,1-.308,2.024l-.809-1.434a7.356,7.356,0,0,0,.307-2.024" transform="translate(-853.464 -209.157)"/>
          <path id="パス_378" data-name="パス 378" class="cls-36" d="M869.073,218.554l.809,1.434a12.241,12.241,0,0,1-2.817,4.739,17.157,17.157,0,0,1-1.3,1.265l-.809-1.432a16.968,16.968,0,0,0,1.3-1.265,12.2,12.2,0,0,0,2.817-4.74" transform="translate(-844.179 -213.724)"/>
          <path id="パス_379" data-name="パス 379" class="cls-35" d="M859.956,238.107l.809,1.432a18.211,18.211,0,0,1-2.219,1.659l-.807-1.435a18.179,18.179,0,0,0,2.216-1.657" transform="translate(-839.178 -227.272)"/>
          <path id="パス_380" data-name="パス 380" class="cls-34" d="M853.272,243.5l.807,1.435a19.305,19.305,0,0,1-1.979,1.1l-.807-1.432a18.891,18.891,0,0,0,1.98-1.1" transform="translate(-834.711 -231.009)"/>
          <path id="パス_381" data-name="パス 381" class="cls-30" d="M846.677,247.1l.808,1.432c-.422.2-.856.392-1.3.567-.254.1-.5.186-.748.272l-.807-1.431c.244-.084.492-.175.745-.275.443-.171.878-.36,1.3-.564" transform="translate(-830.096 -233.5)"/>
          <path id="パス_382" data-name="パス 382" class="cls-33" d="M839.407,249.827l.807,1.431a16.662,16.662,0,0,1-2.315.611l-.808-1.428a17,17,0,0,0,2.316-.614" transform="translate(-824.871 -235.392)"/>
          <path id="パス_383" data-name="パス 383" class="cls-32" d="M818.145,250.122l.808,1.428a11.019,11.019,0,0,1-6.5-.533,3.283,3.283,0,0,0-1.9-.146l-.807-1.435a3.3,3.3,0,0,1,1.9.151,11.048,11.048,0,0,0,6.5.535" transform="translate(-805.925 -235.073)"/>
          <path id="パス_384" data-name="パス 384" class="cls-33" d="M808.243,249.595l.807,1.435a4.115,4.115,0,0,0-.666.177l-.809-1.435a5.3,5.3,0,0,1,.667-.177" transform="translate(-804.421 -235.231)"/>
          <path id="パス_385" data-name="パス 385" class="cls-30" d="M806.22,250.171l.809,1.435c-.07.024-.142.048-.215.077-.131.05-.26.106-.385.169l-.809-1.435c.126-.057.254-.115.387-.168.072-.027.142-.053.214-.077" transform="translate(-803.065 -235.631)"/>
          <path id="パス_386" data-name="パス 386" class="cls-34" d="M804.3,250.969l.809,1.435a6.224,6.224,0,0,0-.583.323l-.809-1.432a4.983,4.983,0,0,1,.583-.326" transform="translate(-801.749 -236.183)"/>
          <path id="パス_387" data-name="パス 387" class="cls-35" d="M802.243,252.031l.809,1.432a5.715,5.715,0,0,0-.653.488l-.81-1.431a5.789,5.789,0,0,1,.654-.489" transform="translate(-800.272 -236.919)"/>
          <path id="パス_388" data-name="パス 388" class="cls-36" d="M798.831,253.624l.81,1.431a5.183,5.183,0,0,0-.388.375,3.62,3.62,0,0,0-.833,1.411l-.811-1.432a3.622,3.622,0,0,1,.839-1.411c.117-.126.252-.253.383-.374" transform="translate(-797.515 -238.023)"/>
          <path id="パス_389" data-name="パス 389" class="cls-35" d="M797.4,259.439l.811,1.432a2.218,2.218,0,0,0-.1.607l-.809-1.432a2.489,2.489,0,0,1,.094-.607" transform="translate(-797.302 -242.052)"/>
          <path id="パス_390" data-name="パス 390" class="cls-34" d="M797.3,261.414l.809,1.432v.022l-.809-1.432v-.022" transform="translate(-797.302 -243.421)"/>
        </g>
      </g>
    </g>
    <g id="グループ_252" data-name="グループ 252" class="cls-3" transform="translate(284.294 223.64)">
      <g id="グループ_251" data-name="グループ 251" class="cls-38">
        <g id="グループ_250" data-name="グループ 250" class="cls-3">
          <path id="パス_392" data-name="パス 392" class="cls-30" d="M675.817,364.281l.809,1.432a1.536,1.536,0,0,1,.148.362l-.812-1.429a1.463,1.463,0,0,0-.145-.365" transform="translate(-675.817 -364.281)"/>
          <path id="パス_393" data-name="パス 393" class="cls-34" d="M676.288,365.469l.812,1.429c.006.04.017.075.02.114a1.683,1.683,0,0,1,.027.366l-.807-1.431a1.776,1.776,0,0,0-.026-.367c-.01-.04-.017-.075-.027-.111" transform="translate(-676.143 -365.104)"/>
          <path id="パス_394" data-name="パス 394" class="cls-35" d="M676.459,367.025l.807,1.431v.071l-.807-1.43v-.071" transform="translate(-676.262 -366.182)"/>
        </g>
      </g>
    </g>
    <g id="グループ_255" data-name="グループ 255" class="cls-3" transform="translate(284.412 224.554)">
      <g id="グループ_254" data-name="グループ 254" class="cls-39">
        <g id="グループ_253" data-name="グループ 253" class="cls-3">
          <path id="パス_396" data-name="パス 396" class="cls-35" d="M676.28,367.257l.807,1.43a3.6,3.6,0,0,1-.079.455l-.808-1.434c.019-.1.043-.2.079-.451" transform="translate(-676.201 -367.257)"/>
        </g>
      </g>
    </g>
    <g id="グループ_258" data-name="グループ 258" class="cls-3" transform="translate(283.592 225.005)">
      <g id="グループ_257" data-name="グループ 257" class="cls-40">
        <g id="グループ_256" data-name="グループ 256" class="cls-3">
          <path id="パス_398" data-name="パス 398" class="cls-36" d="M674.351,368.726l.808,1.434a5.3,5.3,0,0,1-.818,1.414l-.81-1.431a5.521,5.521,0,0,0,.82-1.416" transform="translate(-673.531 -368.726)"/>
        </g>
      </g>
    </g>
    <g id="グループ_261" data-name="グループ 261" class="cls-3" transform="translate(283.234 226.422)">
      <g id="グループ_260" data-name="グループ 260" class="cls-41">
        <g id="グループ_259" data-name="グループ 259" class="cls-3">
          <path id="パス_400" data-name="パス 400" class="cls-36" d="M672.722,373.338l.81,1.431c-.159.169-.26.26-.364.359l-.8-1.434c.1-.1.2-.191.358-.356" transform="translate(-672.364 -373.338)"/>
        </g>
      </g>
    </g>
    <g id="グループ_262" data-name="グループ 262" transform="translate(255.949 227.13)">
      <path id="パス_402" data-name="パス 402" class="cls-42" d="M610.376,375.643l.809,1.433-26.848,10.487-.814-1.433Z" transform="translate(-583.523 -375.643)"/>
    </g>
    <g id="グループ_265" data-name="グループ 265" class="cls-3" transform="translate(282.802 226.778)">
      <g id="グループ_264" data-name="グループ 264" class="cls-43">
        <g id="グループ_263" data-name="グループ 263" class="cls-3">
          <path id="パス_403" data-name="パス 403" class="cls-36" d="M672.245,374.5l.8,1.434a.467.467,0,0,1-.046.04l-.81-1.431a.533.533,0,0,1,.052-.043" transform="translate(-671.814 -374.496)"/>
          <path id="パス_404" data-name="パス 404" class="cls-35" d="M671.337,374.636l.81,1.431c-.145.124-.256.218-.38.312l-.809-1.434c.121-.094.234-.184.379-.309" transform="translate(-670.958 -374.593)"/>
        </g>
      </g>
    </g>
    <g id="グループ_268" data-name="グループ 268" class="cls-3" transform="translate(295.953 220.226)">
      <g id="グループ_267" data-name="グループ 267" class="cls-44">
        <g id="グループ_266" data-name="グループ 266" class="cls-3">
          <path id="パス_406" data-name="パス 406" class="cls-32" d="M714.5,353.8l.81,1.431c-.627-.49-.678-.558-.725-.632l-.806-1.43c.045.072.1.14.721.631" transform="translate(-713.779 -353.164)"/>
        </g>
      </g>
    </g>
    <g id="グループ_271" data-name="グループ 271" class="cls-3" transform="translate(296.674 220.858)">
      <g id="グループ_270" data-name="グループ 270" class="cls-45">
        <g id="グループ_269" data-name="グループ 269" class="cls-3">
          <path id="パス_408" data-name="パス 408" class="cls-32" d="M717.245,355.473l.81,1.433a3.784,3.784,0,0,1-.457-.044,2.441,2.441,0,0,1-.663-.211l-.81-1.431a2.532,2.532,0,0,0,.666.208,3.256,3.256,0,0,0,.453.045" transform="translate(-716.125 -355.22)"/>
        </g>
      </g>
    </g>
    <g id="グループ_274" data-name="グループ 274" class="cls-3" transform="translate(297.793 221.095)">
      <g id="グループ_273" data-name="グループ 273" class="cls-46">
        <g id="グループ_272" data-name="グループ 272" class="cls-3">
          <path id="パス_410" data-name="パス 410" class="cls-32" d="M720.216,355.994l.807,1.435c-.15.009-.3.017-.442.013l-.81-1.433a3.768,3.768,0,0,0,.445-.015" transform="translate(-719.771 -355.994)"/>
        </g>
      </g>
    </g>
    <g id="グループ_275" data-name="グループ 275" transform="translate(298.238 210.609)">
      <path id="パス_412" data-name="パス 412" class="cls-42" d="M748.064,321.849l.808,1.433L722.027,333.77l-.807-1.435Z" transform="translate(-721.22 -321.849)"/>
    </g>
    <g id="グループ_276" data-name="グループ 276" transform="translate(321.604 192.07)">
      <path id="パス_413" data-name="パス 413" class="cls-28" d="M797.3,261.486l.809,1.432,3.477,18.539-.808-1.433Z" transform="translate(-797.302 -261.486)"/>
    </g>
    <path id="パス_414" data-name="パス 414" class="cls-47" d="M653.438,175.7c-.836-4.466-6.6-6.1-12.856-3.652a18.441,18.441,0,0,0-6.78,4.586,14.088,14.088,0,0,0-1.591,2.066,5.017,5.017,0,0,1-.455.582,5.355,5.355,0,0,1-1.993,1.349c-1.717.668-3.283.3-3.72-.794L622.569,161.3l-69.126,27.006,9.238,49.309,26.853-10.487c.135-.1.261-.2.432-.352.1-.1.2-.191.358-.356a5.524,5.524,0,0,0,.82-1.416c.019-.1.043-.2.079-.451a2.188,2.188,0,0,0-.026-.439,1.8,1.8,0,0,0-1.63-1.37c-2.955-.426-5.128-2.064-5.611-4.665-.475-2.537.737-5.444,3.017-7.925a18.448,18.448,0,0,1,6.8-4.591c6.26-2.443,12.014-.806,12.85,3.661.474,2.529-.739,5.426-3.236,8.132a2.9,2.9,0,0,0-.912,2.347,1.645,1.645,0,0,0,.208.521c.045.072.1.14.721.631a2.531,2.531,0,0,0,.666.208,3.251,3.251,0,0,0,.453.045,3.767,3.767,0,0,0,.445-.015l26.844-10.487-3.478-18.539a3.151,3.151,0,0,1,.934-2.04,5.424,5.424,0,0,1,2.008-1.357,3.732,3.732,0,0,1,2.779-.1c2.439,1.1,5.9,1.075,9.56-.354a18.427,18.427,0,0,0,6.8-4.59C652.7,181.141,653.909,178.239,653.438,175.7Z" transform="translate(-306.732)"/>
    <path id="パス_415" data-name="パス 415" class="cls-48" d="M540.782,649.639s23.665.049,32.8.189c6.319.094,6.9-8.915,4.4-10.273-7.57-4.115-31.179-6.234-31.179-6.234l-16.064,14.75S531.644,648.046,540.782,649.639Z" transform="translate(-291.001 -327.054)"/>
    <path id="パス_416" data-name="パス 416" class="cls-49" d="M631.861,528.888s6.086-1.7,8.731,6.241c4.066,12.192,3.706,23.375,3.142,25.757-.264,1.1-1.042,4.885-7.842,5.032-2.754.059-1.653-5.848-1.653-5.848a129.375,129.375,0,0,1-3.652-13.5C628.708,538.078,631.861,528.888,631.861,528.888Z" transform="translate(-359.769 -254.588)"/>
    <path id="パス_417" data-name="パス 417" class="cls-50" d="M556.261,518.289l-15.605-5.046-11.811-.794-12.94,3.916s-4.236,2.919-.3,12.3,2.421,24.081,2.421,24.081l33.383,1.069a271.1,271.1,0,0,1,2.843-27.178C554.743,523.6,554.8,520.032,556.261,518.289Z" transform="translate(-279.353 -243.304)"/>
    <path id="パス_418" data-name="パス 418" class="cls-49" d="M576.9,555.368h1.7a141.519,141.519,0,0,0-.267-39.728c-.514.306-1.024.611-1.538.913C577.234,529.924,576.5,543.3,576.9,555.368Z" transform="translate(-322.899 -245.515)"/>
    <g id="グループ_277" data-name="グループ 277" transform="translate(248.605 257.561)">
      <path id="パス_419" data-name="パス 419" class="cls-51" d="M571.642,490.786a3.879,3.879,0,0,1-3.256,3.444h-4.408a3.878,3.878,0,0,1-3.253-3.444q-.54-4.464-1.081-8.927c-.242-1.785.819-5.363,3.166-6.423a8.418,8.418,0,0,1,6.75,0c2.347,1.06,3.406,4.638,3.167,6.423Q572.185,486.328,571.642,490.786Z" transform="translate(-559.61 -474.73)"/>
    </g>
    <path id="パス_420" data-name="パス 420" class="cls-49" d="M562.551,524.123l-2.8,4.592-5.13-6.416.805-3.374,1.669-1.37.021,2.542Z" transform="translate(-307.546 -246.842)"/>
    <path id="パス_421" data-name="パス 421" class="cls-49" d="M581.555,524.06l2.8,4.591,4.776-5.979-.786-3.664-1.192-1.545-.486,3Z" transform="translate(-326.21 -246.777)"/>
    <path id="パス_422" data-name="パス 422" class="cls-52" d="M563.283,458.6a3.517,3.517,0,0,0-2.955,1.594h-1.21a2.735,2.735,0,0,0-2.736,2.737v6.753h1.924v-2.747a1.926,1.926,0,0,1,1.924-1.926h.521a3.527,3.527,0,0,0,3.529-3.527V458.6Z" transform="translate(-308.768 -205.99)"/>
    <path id="パス_423" data-name="パス 423" class="cls-51" d="M559.873,494.522a1.674,1.674,0,0,1-1.678,1.674h-.138a1.674,1.674,0,0,1-1.675-1.674v-2.031a1.673,1.673,0,0,1,1.675-1.671h.138a1.673,1.673,0,0,1,1.533.995" transform="translate(-308.768 -228.317)"/>
    <path id="パス_424" data-name="パス 424" class="cls-52" d="M573.959,461.278V458.6h5.8a3.527,3.527,0,0,1,3.529,3.527v2.684h-5.8A3.528,3.528,0,0,1,573.959,461.278Z" transform="translate(-320.947 -205.99)"/>
    <path id="パス_425" data-name="パス 425" class="cls-53" d="M572.472,478.343a5.513,5.513,0,0,1-2.854,4.529,10.251,10.251,0,0,1-7.689,0,5.5,5.5,0,0,1-2.857-4.529V466.395a2.965,2.965,0,0,1,3.14-2.632h7.121a2.96,2.96,0,0,1,3.138,2.632Z" transform="translate(-310.633 -209.57)"/>
    <path id="パス_426" data-name="パス 426" class="cls-52" d="M578.728,458.6a3.519,3.519,0,0,1,2.954,1.594h1.214a2.734,2.734,0,0,1,2.73,2.737v6.753H583.7v-2.747a1.925,1.925,0,0,0-1.927-1.926h-2.455a3.524,3.524,0,0,1-3.529-3.527V458.6Z" transform="translate(-322.218 -205.99)"/>
    <path id="パス_427" data-name="パス 427" class="cls-53" d="M596.541,492.491a1.669,1.669,0,0,1,1.673-1.671h.14a1.674,1.674,0,0,1,1.677,1.671v2.031a1.68,1.68,0,0,1-1.677,1.674h-.14a1.678,1.678,0,0,1-1.531-.995" transform="translate(-336.594 -228.317)"/>
    <path id="パス_428" data-name="パス 428" class="cls-52" d="M562.344,461.971a3.819,3.819,0,0,0,.066-.692V458.6h-2.495a3.528,3.528,0,0,0-3.533,3.527v2.684h2.5a3.464,3.464,0,0,0,.726-.076A3.537,3.537,0,0,1,562.344,461.971Z" transform="translate(-308.768 -205.99)"/>
    <path id="パス_429" data-name="パス 429" class="cls-54" d="M474.473,820.934c-.363.442-.1,1.6-.1,1.6s6.368.707,8.418.229a10.8,10.8,0,0,0,2.282-1.069c.142-.083.4-.572.534-.653.255-.156.39.1.6-.035a6.811,6.811,0,0,0,.975-.671c.561-2.924-.183-4.1-.183-4.1s-5.423-1.8-6.439-.549C478.176,818.651,475.271,819.967,474.473,820.934Z" transform="translate(-251.882 -453.107)"/>
    <path id="パス_430" data-name="パス 430" class="cls-54" d="M668.744,817.162l.44,4.812,4.818.469s.331-.643.741-.6c.345.034.723.745,1.187.792,1.013.1,2.141.209,2.586.255l9.67.947s.314-.974.079-1.342a4.625,4.625,0,0,0-1.417-.776c-2.418-.94-9.325-3.821-10.331-6.322C675.3,812.351,668.744,817.162,668.744,817.162Z" transform="translate(-386.622 -452.51)"/>
    <g id="グループ_278" data-name="グループ 278" transform="translate(258.55 303.73)">
      <path id="パス_431" data-name="パス 431" class="cls-53" d="M608.28,625.066l-16.289,6.652s11.557,1.65,18.779.179C615.654,630.9,608.5,624.858,608.28,625.066Z" transform="translate(-591.991 -625.061)"/>
    </g>
    <path id="パス_432" data-name="パス 432" class="cls-48" d="M493.281,655.229s-1.566,14.872-1.345,22.736a170.993,170.993,0,0,1-1.225,26.98c-.087.6-7.662.151-7.662.151s-2.719-36.872-3.531-42.942C478.72,656.078,481.06,651.7,493.281,655.229Z" transform="translate(-255.412 -341.36)"/>
    <path id="パス_433" data-name="パス 433" class="cls-55" d="M657.937,663.871s-2.44,3.855-9.135,4.767c-2.421.33,3.9,43.163,3.9,43.163l9.9-3.17-1.913-47.365Z" transform="translate(-372.422 -346.417)"/>
    <path id="パス_434" data-name="パス 434" class="cls-55" d="M517.929,649.224s-12.934,1.847-21.566,2.75c-3.168.334-5.906-8.526-6.272-8.911a6.523,6.523,0,0,0-4.514-2.2c1.87-2.018,11.557-3.9,21.681-6.273s11.664-.877,11.664-.877Z" transform="translate(-259.707 -327.002)"/>
    <path id="パス_435" data-name="パス 435" class="cls-55" d="M507.257,634.587c-10.124,2.376-19.81,4.256-21.681,6.273a6.524,6.524,0,0,1,4.514,2.2c.1.106.68,2.948,1.1,3.962-1.648-2.972,22.14-11.356,27.279-13.526C517.506,633.19,514.711,632.839,507.257,634.587Z" transform="translate(-259.707 -327.001)"/>
    <path id="パス_436" data-name="パス 436" class="cls-55" d="M507.809,678.711l-.989,28.942-.992,6.712-.109-6.712.218-4.182-2.312-6.492L502.413,681.9l1.764.66-.22-6.6Z" transform="translate(-271.374 -356.599)"/>
    <path id="パス_437" data-name="パス 437" class="cls-48" d="M669.969,658.042l2.419.661.881,34.772-5.06,12.437,2.419-8.475-.99-17.5s-3.524,8.473-3.524,8.037,2.974-18.38,2.974-18.38a39.535,39.535,0,0,0-2.974,2.641C666.445,672.128,668.1,659.692,669.969,658.042Z" transform="translate(-384.784 -344.183)"/>
    <path id="パス_438" data-name="パス 438" class="cls-50" d="M492.735,523.189s-5.2-4.074-10.286,3.487c-7.454,11.079-10.691,22.865-11.877,26.275-.9,2.619-.4,10.01,2.642,13.059.735.735,5.137.143,5.137.143l2.889-1.994-1.21-2.327L479.964,560s3.7-8.912,8.231-17.338S492.735,523.189,492.735,523.189Z" transform="translate(-249.032 -249.986)"/>
    <g id="グループ_280" data-name="グループ 280" transform="translate(229.702 306.075)">
      <path id="パス_439" data-name="パス 439" class="cls-53" d="M499.351,635.964l16.88.878s-16.259,7.461-16.794,6.173C496.389,635.732,499.351,635.964,499.351,635.964Z" transform="translate(-498.06 -634.96)"/>
      <g id="グループ_279" data-name="グループ 279" transform="translate(10.433)">
        <path id="パス_440" data-name="パス 440" class="cls-53" d="M532.175,633.179c.987-.474.9-.482.9-.482a4.066,4.066,0,0,0,2.211,1.272c.65.1,2.743.128,2.743.128l3.107.074,1.443-.078a2.649,2.649,0,0,1,1.028.029c.629.4.093.728.093.728l-5.573.788,5.353.666s.675.2.708.562c.027.337-.2.328-.2.328l-6.217.665,2.727.651s.65.21.7.562c.057.385.08.492.08.492L535.556,639S531.187,633.655,532.175,633.179Z" transform="translate(-532.03 -632.697)"/>
        <path id="パス_441" data-name="パス 441" class="cls-53" d="M551.3,645.488l3.745.682a3.121,3.121,0,0,1,1.232.335.5.5,0,0,1,.18.7l-5.738-.484Z" transform="translate(-544.976 -641.56)"/>
      </g>
    </g>
    <g id="グループ_283" data-name="グループ 283" transform="translate(236.664 289.119)">
      <path id="パス_442" data-name="パス 442" class="cls-56" d="M553.987,652.59a.2.2,0,0,1,.017-.031l-.017-1.065H520.729v1.065a.1.1,0,0,0,0,.031l.115.2c.565.925,1.582,1.086,2.746,1.086h27.537c1.163,0,2.18-.161,2.745-1.086Z" transform="translate(-520.728 -628.764)"/>
      <g id="グループ_281" data-name="グループ 281" transform="translate(5.629 22.975)">
        <rect id="長方形_161" data-name="長方形 161" class="cls-57" width="22.018" height="0.752"/>
      </g>
      <g id="グループ_282" data-name="グループ 282" transform="translate(0.028 0)">
        <path id="パス_443" data-name="パス 443" class="cls-58" d="M554.027,600.329l.088-21.806a1.033,1.033,0,0,0-1.037-1.039H521.954a1.048,1.048,0,0,0-1.047,1.039l-.088,21.806Z" transform="translate(-520.819 -577.484)"/>
        <path id="パス_444" data-name="パス 444" class="cls-56" d="M572.5,610.126a2.016,2.016,0,1,1-2.008-2.015A2.024,2.024,0,0,1,572.5,610.126Z" transform="translate(-553.836 -598.705)"/>
      </g>
    </g>
    <path id="パス_445" data-name="パス 445" class="cls-59" d="M492.519,642.255l-1.157-7.4,1.922-1.979,4.262.682-.871,8.19Z" transform="translate(-263.717 -326.745)"/>
    <path id="パス_446" data-name="パス 446" class="cls-59" d="M645.9,629.061l.446-2.722-5.394-4.842-2.92,1.318,3.818,7.3Z" transform="translate(-365.342 -318.861)"/>
  </g>
</svg>
