<svg xmlns="http://www.w3.org/2000/svg" width="100" height="100" viewBox="0 0 100 100">
  <defs>
    <style>
      .cls-1, .cls-2, .cls-7 {
        fill: none;
      }

      .cls-1, .cls-2 {
        stroke: #eb564c;
      }

      .cls-1 {
        stroke-width: 3px;
      }

      .cls-3 {
        fill: #eb564c;
      }

      .cls-4 {
        fill: #b4433c;
      }

      .cls-5 {
        fill: #fff;
      }

      .cls-6 {
        stroke: none;
      }
    </style>
  </defs>
  <g id="グループ_130" data-name="グループ 130" transform="translate(-758 -3367)">
    <g id="長方形_40" data-name="長方形 40" class="cls-1" transform="translate(758 3367)">
      <rect class="cls-6" width="100" height="100" rx="50"/>
      <rect class="cls-7" x="1.5" y="1.5" width="97" height="97" rx="48.5"/>
    </g>
    <g id="グループ_48" data-name="グループ 48" transform="translate(-18.396 9.018)">
      <path id="合体_2" data-name="合体 2" class="cls-2" d="M8.3,24.023c-1.6.138-7.989.644-8.3-.032l3.9-3.537A11.249,11.249,0,0,1,1.146,13.2C1.146,5.911,8.655,0,17.916,0S34.688,5.911,34.688,13.2s-7.509,13.2-16.772,13.2A19.947,19.947,0,0,1,8.3,24.023Z" transform="translate(803.396 3386.982)"/>
      <circle id="楕円形_21" data-name="楕円形 21" class="cls-3" cx="1.784" cy="1.784" r="1.784" transform="translate(811.32 3398.044)"/>
      <circle id="楕円形_22" data-name="楕円形 22" class="cls-3" cx="1.784" cy="1.784" r="1.784" transform="translate(819.885 3398.044)"/>
      <circle id="楕円形_23" data-name="楕円形 23" class="cls-3" cx="1.784" cy="1.784" r="1.784" transform="translate(828.449 3398.044)"/>
      <path id="合体_3" data-name="合体 3" class="cls-4" d="M0,12.133C0,5.432,6.87,0,15.344,0S30.689,5.432,30.689,12.133A10.147,10.147,0,0,1,28.847,17.9l3.375,2.765c-.24.6-5.221.686-6.92.7a17.847,17.847,0,0,1-9.958,2.9C6.87,24.265,0,18.834,0,12.133Z" transform="translate(816.673 3405.538)"/>
      <circle id="楕円形_25" data-name="楕円形 25" class="cls-5" cx="1.784" cy="1.784" r="1.784" transform="translate(822.026 3415.886)"/>
      <circle id="楕円形_26" data-name="楕円形 26" class="cls-5" cx="1.784" cy="1.784" r="1.784" transform="translate(830.59 3415.886)"/>
      <circle id="楕円形_27" data-name="楕円形 27" class="cls-5" cx="1.784" cy="1.784" r="1.784" transform="translate(839.154 3415.886)"/>
    </g>
  </g>
</svg>
