<svg xmlns="http://www.w3.org/2000/svg" width="100" height="100" viewBox="0 0 100 100">
  <defs>
    <style>
      .cls-1, .cls-7 {
        fill: none;
      }

      .cls-1 {
        stroke: #eb564c;
        stroke-width: 3px;
      }

      .cls-2 {
        fill: #b4433c;
      }

      .cls-3 {
        fill: #ffc2be;
      }

      .cls-4 {
        fill: #eb564c;
      }

      .cls-5 {
        fill: #fff;
      }

      .cls-6 {
        stroke: none;
      }
    </style>
  </defs>
  <g id="グループ_131" data-name="グループ 131" transform="translate(-1088 -3367)">
    <g id="長方形_41" data-name="長方形 41" class="cls-1" transform="translate(1088 3367)">
      <rect class="cls-6" width="100" height="100" rx="50"/>
      <rect class="cls-7" x="1.5" y="1.5" width="97" height="97" rx="48.5"/>
    </g>
    <g id="グループ_53" data-name="グループ 53" transform="translate(-8 2)">
      <g id="グループ_50" data-name="グループ 50" transform="translate(1123 3394)">
        <path id="長方形_61" data-name="長方形 61" class="cls-2" d="M13.02,0h0A13.02,13.02,0,0,1,26.04,13.02v8.37a0,0,0,0,1,0,0H0a0,0,0,0,1,0,0V13.02A13.02,13.02,0,0,1,13.02,0Z" transform="translate(0 21.39)"/>
        <g id="グループ_49" data-name="グループ 49" transform="translate(1.751)">
          <path id="パス_449" data-name="パス 449" class="cls-3" d="M10.944,0c6.044,0,10.944,5.488,10.944,12.257s-4.9,12.257-10.944,12.257S0,19.027,0,12.257,4.9,0,10.944,0Z" transform="translate(0.208 0)"/>
          <path id="パス_38" data-name="パス 38" class="cls-4" d="M6432.2,3709.991c-1.831,1.2-10.323,5.339-13.023,3.4-1.033-3.885,1.165-13.138,11.092-13.27s10.772,11.359,10.772,11.359S6433.479,3711.094,6432.2,3709.991Z" transform="translate(-6418.943 -3700.12)"/>
        </g>
      </g>
      <g id="グループ_52" data-name="グループ 52" transform="translate(1150.196 3402.927)">
        <path id="合体_4" data-name="合体 4" class="cls-2" d="M0,6.911c0,3.817,3.848,6.911,8.594,6.911s8.594-3.094,8.594-6.911a5.847,5.847,0,0,0-1.032-3.286l1.89-1.575c-.135-.343-2.924-.391-3.876-.4A9.876,9.876,0,0,0,8.594,0C3.848,0,0,3.094,0,6.911Z" transform="translate(18.047 13.821) rotate(180)"/>
        <ellipse id="楕円形_31" data-name="楕円形 31" class="cls-5" cx="0.948" cy="0.948" rx="0.948" ry="0.948" transform="translate(13.169 5.963)"/>
        <ellipse id="楕円形_32" data-name="楕円形 32" class="cls-5" cx="0.948" cy="0.948" rx="0.948" ry="0.948" transform="translate(8.621 5.963)"/>
        <ellipse id="楕円形_33" data-name="楕円形 33" class="cls-5" cx="0.948" cy="0.948" rx="0.948" ry="0.948" transform="translate(4.073 5.963)"/>
      </g>
    </g>
  </g>
</svg>
