<svg xmlns="http://www.w3.org/2000/svg" width="160" height="119" viewBox="0 0 160 119">
  <defs>
    <style>
      .cls-1 {
        fill: #fee;
      }

      .cls-2 {
        fill: #e9d6b8;
      }

      .cls-3 {
        fill: #ff312c;
      }

      .cls-4 {
        fill: #631a18;
      }

      .cls-5 {
        fill: #eb564c;
      }

      .cls-6 {
        fill: #fec00f;
      }

      .cls-7 {
        fill: #e2c59c;
      }

      .cls-8 {
        fill: #d39392;
      }

      .cls-9 {
        fill: #d69594;
      }

      .cls-10 {
        fill: #e8acaa;
      }

      .cls-11 {
        fill: #ce0500;
      }

      .cls-12 {
        fill: #ff9592;
      }

      .cls-13 {
        fill: #e8b00e;
      }

      .cls-14 {
        fill: #282723;
      }

      .cls-15 {
        fill: #161711;
      }

      .cls-16 {
        fill: #601715;
      }

      .cls-17 {
        fill: #511614;
      }

      .cls-18 {
        fill: #d0dee6;
      }

      .cls-19 {
        fill: #b6c2c9;
      }

      .cls-20 {
        fill: #d7dfe2;
      }

      .cls-21 {
        fill: #f2a9a7;
      }

      .cls-22 {
        fill: #d68b8a;
      }

      .cls-23 {
        fill: #ff7471;
      }

      .cls-24 {
        fill: #ff9997;
      }

      .cls-25 {
        fill: #aa0804;
      }

      .cls-26 {
        fill: #ff605c;
      }

      .cls-27 {
        fill: #c60500;
      }

      .cls-28 {
        fill: #ff908d;
      }

      .cls-29 {
        fill: #ff6a66;
      }
    </style>
  </defs>
  <g id="グループ_186" data-name="グループ 186" transform="translate(-110.498 -210.721)">
    <path id="パス_139" data-name="パス 139" class="cls-1" d="M191.244,644.4c24.854,1.151,46.414,4.481,60.446,8.021,14.136,3.6,20.738,7.4,18.317,10.85-2.442,3.483-13.3,6.235-27.726,8.713a453.389,453.389,0,0,1-51.778,5.473c-37.332,2.075-71.568-3.8-79.021-15.167C103.954,650.988,140.473,641.721,191.244,644.4Z" transform="translate(0 -348.152)"/>
    <path id="パス_140" data-name="パス 140" class="cls-2" d="M507.509,541.847c-.445-.276-1.969,1.421-2.615,2.922a26.523,26.523,0,0,0-2.087,7.812c-.781,5.146-2.1,13.319-2.535,16.8-.393,3.134-1.654,6.843.231,6.319-.028-4.3,1.951-10.793,3.1-14.2C507.52,549.862,508.88,542.685,507.509,541.847Z" transform="translate(-313.188 -266.084)"/>
    <path id="パス_141" data-name="パス 141" class="cls-2" d="M481.948,539.143q.251-1.238.51-2.437c.584-1.166,1.093-1.778,1.483-1.687,1.47.346,2.8,7-1.819,22.792-.231.794-3.331,14.563-3.31,14.225C479.347,563.2,479.476,551.385,481.948,539.143Z" transform="translate(-296.525 -260.623)"/>
    <path id="パス_142" data-name="パス 142" class="cls-3" d="M468.224,714.417c-.8,1.613-1.789,2.751-2.215,2.539s-.128-1.689.671-3.3,1.791-2.751,2.215-2.54S469.021,712.8,468.224,714.417Z" transform="translate(-286.044 -402.063)"/>
    <path id="パス_143" data-name="パス 143" class="cls-2" d="M471.366,706.659c-.408,1.264-1.276,2.177-1.7,1.967s-.268-1.295.371-2.457c.812-1.471,1.12-1.892,1.189-2.947C471.287,702.233,472.9,701.911,471.366,706.659Z" transform="translate(-288.947 -395.262)"/>
    <path id="パス_144" data-name="パス 144" class="cls-2" d="M502.986,701.688a8.9,8.9,0,0,0-1.606-.407c-.69-.131-1.214-.128-1.462-.386-.409-.427-.183-1.463-.382-1.415-.976.223-1.313,2.505-.744,2.789s3.786-.094,4.051-.115S503.066,701.627,502.986,701.688Z" transform="translate(-312.376 -392.743)"/>
    <path id="パス_145" data-name="パス 145" class="cls-3" d="M502.126,709.627c.182.769-2.176.459-2.786.258a7.065,7.065,0,0,0-.955-.25c-.024,0-.047,0-.072-.005a.382.382,0,0,0-.01.055c0,.422-.184.984.49.984h4.228C506.476,710.669,502.122,709.61,502.126,709.627Z" transform="translate(-312.196 -400.89)"/>
    <path id="パス_146" data-name="パス 146" class="cls-4" d="M515.319,220.739l.938-6.264a4.771,4.771,0,0,0-3.473-2.757c-2.89-.433-5.7,2.341-6.276,6.2s1.3,7.327,4.186,7.761c2.021.3,4-.968,5.208-3.073A2.282,2.282,0,0,1,515.319,220.739Z" transform="translate(-318.758 -0.765)"/>
    <path id="パス_147" data-name="パス 147" class="cls-4" d="M490.143,220.131c-.394.928.347,2.129,1.656,2.685l2.98,1.268c1.307.557,2.687.256,3.08-.672l3.6-8.458c.4-.928-.346-2.128-1.651-2.686L496.821,211c-1.306-.557-2.687-.255-3.081.672Z" transform="translate(-305.591)"/>
    <path id="パス_148" data-name="パス 148" class="cls-2" d="M498.888,261.169c1.909.826,2.865.569,1.406,1.184-.7.86-9.669-.337-10.157-1.449-.079-.187,3.56-.722,3.581-.86a11.55,11.55,0,0,0-.141-4.782.269.269,0,0,1,.238-.252c.68.021,1.365.026,2.047.046.113.006,1.449.3,1.153.94C496.868,257.754,496.866,260.295,498.888,261.169Z" transform="translate(-305.666 -35.557)"/>
    <path id="パス_149" data-name="パス 149" class="cls-2" d="M517.888,232.738l.142-.159c.013-.018.027-.032.043-.051.058-.066.113-.135.171-.209l.044-.058c.041-.055.082-.11.122-.166.023-.031.046-.062.067-.093l.1-.147c.023-.033.044-.068.066-.1.043-.064.082-.131.125-.2.028-.05.06-.1.089-.154s.054-.092.079-.139.053-.1.078-.146.045-.082.066-.127.037-.067.055-.1v0a17.018,17.018,0,0,0,.891-5.134.469.469,0,0,0-.409-.423c-1.561-.285-6.093-1.882-6.166,2.664l0,0c0,.011-.042.392-.057.568,0,.016,0,.031,0,.046-.013.177-.022.353-.027.525v.035c0,.176,0,.348,0,.518a.037.037,0,0,0,0,.019c.065,2.172.824,3.823,2.071,4.1a2.5,2.5,0,0,0,2.224-.846h0c0-.006.011-.011.016-.017.054-.052.109-.106.161-.161Z" transform="translate(-324.341 -11.323)"/>
    <path id="パス_150" data-name="パス 150" class="cls-2" d="M401.181,261.717s-.333.159-.475-.093a5.161,5.161,0,0,1-.326-1.718c-.017-.38.2-2.187.2-2.187a2.133,2.133,0,0,1,.282,1.294A9.146,9.146,0,0,0,401.181,261.717Z" transform="translate(-233.357 -37.732)"/>
    <path id="パス_151" data-name="パス 151" class="cls-2" d="M401.679,262.026a2.669,2.669,0,0,1,.26-2.268,1.561,1.561,0,0,0,.106-1.345,10.821,10.821,0,0,0-.769,1.854,3.36,3.36,0,0,0-.232,1.193C401.09,262.656,402.463,263.609,401.679,262.026Z" transform="translate(-233.892 -38.289)"/>
    <path id="パス_152" data-name="パス 152" class="cls-2" d="M449.245,314.882c-1.744,1.289-3.287,5.819-4.486,8.688a5.27,5.27,0,0,0-.426,2.838s.591,3.793,5.107-6.542C450.572,317.28,449.9,314.4,449.245,314.882Z" transform="translate(-268.727 -83.648)"/>
    <path id="パス_153" data-name="パス 153" class="cls-2" d="M402.35,270.305l-.292.186-.2,1.168a13.4,13.4,0,0,0,1.006,2.78c.48.709,2.415,6.3,2.735,6.545.568.441,1.691-1.076,1.691-1.076s-2.462-3.907-2.961-5.16a29.536,29.536,0,0,1-.771-3.785,13.59,13.59,0,0,1-.408-1.3s-.434.225-.035,1.587c.1.36-.353.286-.353.286Z" transform="translate(-234.57 -47.321)"/>
    <path id="パス_154" data-name="パス 154" class="cls-5" d="M482.867,292.1l11.966-.1,1.463-13.687-14.2,1.349Z" transform="translate(-299.213 -54.267)"/>
    <path id="パス_155" data-name="パス 155" class="cls-5" d="M485.676,387.463c-5.885.921-6.948.139-13.71-.827-.64.011-3.38-6.572-1.451-23.932.4-3.577,3.1-6.451,2.482-16.162l12.068-.233C483.462,355.137,493.024,356.508,485.676,387.463Z" transform="translate(-289.369 -108.976)"/>
    <path id="パス_156" data-name="パス 156" class="cls-5" d="M545.291,295.548l-1.7-12,.412-4.84a1.774,1.774,0,0,1,1.037-.517l.269-.035a2.012,2.012,0,0,1,2.107,1.971l1.334,16.428Z" transform="translate(-348.671 -54.132)"/>
    <path id="パス_157" data-name="パス 157" class="cls-5" d="M445.753,302.6l5.428-10.472,1.653-6.12a1.884,1.884,0,0,0-.892-.69l-.254-.1a1.908,1.908,0,0,0-2.456,1.115L443.445,298.3Z" transform="translate(-268.066 -59.715)"/>
    <path id="パス_158" data-name="パス 158" class="cls-2" d="M403.041,265.992a3.567,3.567,0,0,1-.163-1.563c.118-.363.945-1.983.945-1.983a2.122,2.122,0,0,1-.18,1.311A7.236,7.236,0,0,0,403.041,265.992Z" transform="translate(-235.331 -41.527)"/>
    <path id="パス_159" data-name="パス 159" class="cls-2" d="M405.819,277.373s.3.07.4-.025a1.713,1.713,0,0,1-.03.286c-.02.181.079,1.4.079,1.4a10.092,10.092,0,0,0-.367-1.108,4.929,4.929,0,0,1-.238-.822c-.008-.037.006-.1,0-.176Z" transform="translate(-237.611 -53.158)"/>
    <path id="パス_160" data-name="パス 160" class="cls-2" d="M407.054,271.674c-.266-.915-.159-1.317-.06-1.484.061.217.169.564.339,1.046a6.479,6.479,0,0,1,.176.979,1.655,1.655,0,0,0-.436.9c-.024.133-.266-.667-.309-1.154C406.886,271.968,407.135,271.95,407.054,271.674Z" transform="translate(-238.496 -47.744)"/>
    <path id="パス_161" data-name="パス 161" class="cls-4" d="M496.685,219.372a2.284,2.284,0,0,1-.581-1.862l.936-6.262c-.035-.072-.076-.136-.115-.2l-.1-.044c-1.306-.557-2.687-.255-3.081.672l-3.6,8.458a1.969,1.969,0,0,0,.86,2.211,3.959,3.959,0,0,0,.473.1C493.5,222.747,495.479,221.479,496.685,219.372Z" transform="translate(-305.567)"/>
    <path id="パス_162" data-name="パス 162" class="cls-6" d="M489.619,297.93l12.518-1.252-4.275,16.3L486.335,314.2Z" transform="translate(-302.635 -69.01)"/>
    <path id="パス_163" data-name="パス 163" class="cls-2" d="M525.973,303.742c-1.412-2.183-1.023-3.758-1.27-4.819a19.74,19.74,0,0,1-.347-2.225c-.535,1.031-.1,1.752-.15,2.282s.033.348-.526-.4c-.315-.423-.107-1.654-.078-2.464a2.206,2.206,0,0,0-.139-1.023,10.68,10.68,0,0,0-.466,2.113,13.2,13.2,0,0,0,.051,3.077,11.122,11.122,0,0,0,1.83,3.02C525.78,304.389,526.992,305.314,525.973,303.742Z" transform="translate(-332.029 -67.741)"/>
    <path id="パス_164" data-name="パス 164" class="cls-2" d="M533.61,334.7c-3.075-3.689-7.153-7.9-7.153-7.9l5.6,9.588S535.149,336.545,533.61,334.7Z" transform="translate(-334.89 -93.27)"/>
    <path id="パス_165" data-name="パス 165" class="cls-5" d="M547.713,350.457s1.983,2.664.2,3.652a1.7,1.7,0,0,1-2.411-.608c-1.085-1.517-2.23-3.3-2.23-3.3l1.929-2.527Z" transform="translate(-348.411 -110.039)"/>
    <path id="パス_166" data-name="パス 166" class="cls-7" d="M521.053,300.437a15.371,15.371,0,0,1-.543-2.377c.024-.292.371-1.648.371-1.648a2.735,2.735,0,0,1,.163,1.253A22.594,22.594,0,0,0,521.053,300.437Z" transform="translate(-330.061 -68.796)"/>
    <path id="パス_167" data-name="パス 167" class="cls-5" d="M418.981,316.172s-2.46,1.076-2.153,2.152,3.228,9.531,5.074,10.3,2.766-1.691,2.921-2.306S418.981,316.172,418.981,316.172Z" transform="translate(-246.608 -84.728)"/>
    <g id="グループ_177" data-name="グループ 177" transform="translate(135.151 303.745)">
      <path id="パス_168" data-name="パス 168" class="cls-8" d="M248.013,684l1.452,2.215-12.2,3.909s-.816-.78,2.178-2.345C242.928,685.953,248.013,684,248.013,684Z" transform="translate(-237.163 -683.998)"/>
      <path id="パス_169" data-name="パス 169" class="cls-8" d="M297.27,684l-1.452,2.215,12.2,3.909s.814-.78-2.18-2.345C302.353,685.953,297.27,684,297.27,684Z" transform="translate(-284.254 -683.998)"/>
    </g>
    <rect id="長方形_147" data-name="長方形 147" class="cls-9" width="2.549" height="9.077" transform="translate(145.733 297.168)"/>
    <g id="グループ_178" data-name="グループ 178" transform="translate(136.538 304.211)">
      <path id="パス_170" data-name="パス 170" class="cls-10" d="M253.545,686.365l1.244,2.113-10.445,3.731s-.7-.744,1.866-2.239A81.38,81.38,0,0,1,253.545,686.365Z" transform="translate(-244.257 -686.365)"/>
      <path id="パス_171" data-name="パス 171" class="cls-10" d="M298.945,686.365l-1.244,2.113,10.446,3.731s.7-.744-1.865-2.239A81.555,81.555,0,0,0,298.945,686.365Z" transform="translate(-287.164 -686.365)"/>
    </g>
    <path id="パス_172" data-name="パス 172" class="cls-11" d="M346.127,716.652a.886.886,0,1,1-.887-.887A.887.887,0,0,1,346.127,716.652Z" transform="translate(-188.26 -405.818)"/>
    <path id="パス_173" data-name="パス 173" class="cls-11" d="M357,716.652a.886.886,0,1,1-.887-.887A.886.886,0,0,1,357,716.652Z" transform="translate(-197.015 -405.818)"/>
    <rect id="長方形_148" data-name="長方形 148" class="cls-11" width="1.865" height="3.265" transform="translate(146.042 293.865)"/>
    <path id="パス_174" data-name="パス 174" class="cls-11" d="M290.361,617.546a1.82,1.82,0,0,1-1.82,1.819h-1.025a1.82,1.82,0,0,1-1.819-1.819h0a1.819,1.819,0,0,1,1.819-1.819h1.025a1.82,1.82,0,0,1,1.82,1.819Z" transform="translate(-141.046 -325.395)"/>
    <path id="パス_175" data-name="パス 175" class="cls-12" d="M254.651,598.41c.044-.214.071-1.555.071-1.786a2.436,2.436,0,0,0-2.12-2.659H228.978a2.437,2.437,0,0,0-2.12,2.659c0,.231.027,1.573.071,1.786Z" transform="translate(-93.418 -307.913)"/>
    <path id="パス_176" data-name="パス 176" class="cls-11" d="M225.759,616.852c0,.449.263.814.586.814H253.47c.324,0,.586-.364.586-.814h0c0-.45-.262-.814-.586-.814H226.345c-.323,0-.586.364-.586.814Z" transform="translate(-92.536 -325.641)"/>
    <path id="パス_177" data-name="パス 177" class="cls-12" d="M232.014,482.767c.582.042,4.285.108,4.924.115,4.052.049,7.545-.712,7.738-1.71a34.631,34.631,0,0,0,.1-12.553c-.173-1-3.716-1.758-7.854-1.707-.652.007-4.431.073-5.024.117A33.983,33.983,0,0,1,232.014,482.767Z" transform="translate(-97.468 -205.849)"/>
    <g id="グループ_180" data-name="グループ 180" transform="translate(155.666 263.001)">
      <g id="グループ_179" data-name="グループ 179" transform="translate(2.137 0.807)">
        <path id="パス_178" data-name="パス 178" class="cls-7" d="M353.4,482.082s.029,1.031,5.035,1.036a93.672,93.672,0,0,0,12.357-1.227l-11.55-1.091S354.807,480.592,353.4,482.082Z" transform="translate(-353.399 -480.79)"/>
        <path id="パス_179" data-name="パス 179" class="cls-7" d="M418.313,485.34c2.38.075,3.364,1.3,4.3,1.7a16.584,16.584,0,0,1,1.855.985c-.5-1.035-1.266-1.089-1.64-1.43s-.279-.174.569-.21c.483-.021,1.3.856,1.9,1.346a1.941,1.941,0,0,0,.845.467,10.586,10.586,0,0,0-1.354-1.6,12.278,12.278,0,0,0-2.347-1.717,9.341,9.341,0,0,0-3.231-.206C417.922,484.81,416.6,485.286,418.313,485.34Z" transform="translate(-404.859 -483.875)"/>
        <path id="パス_180" data-name="パス 180" class="cls-7" d="M441.909,486.132a12.924,12.924,0,0,1,2.119.771c.218.175,1.118,1.182,1.118,1.182a2.388,2.388,0,0,1-1.06-.513A20.534,20.534,0,0,0,441.909,486.132Z" transform="translate(-424.458 -485.079)"/>
      </g>
      <path id="パス_181" data-name="パス 181" class="cls-13" d="M346.963,476.7s-4.618.131-4.394,2.875a2.135,2.135,0,0,0,2.555,2.069c2.593-.12,5.537-.4,5.537-.4l1.456-4.2Z" transform="translate(-342.561 -476.699)"/>
    </g>
    <path id="パス_182" data-name="パス 182" class="cls-13" d="M332.42,413.325l-4.028-14.219s-.592-2.084-1.7-1.734c-1.6.5-.875,2.215-.771,3.22a32.923,32.923,0,0,0,1.282,7.889c.793,3.06,1.451,6.577,2.167,8.6.491,1.391,1.482-.543,2.893-1.045C334.893,415.1,332.42,413.325,332.42,413.325Z" transform="translate(-173.232 -149.948)"/>
    <path id="パス_183" data-name="パス 183" class="cls-14" d="M273.113,354.4a5.867,5.867,0,1,1-4.467-6.886A5.806,5.806,0,0,1,273.113,354.4Z" transform="translate(-121.604 -109.792)"/>
    <path id="パス_184" data-name="パス 184" class="cls-14" d="M309.673,329.14a4.412,4.412,0,0,1-5.269,3.339l-.619-2.285a4.411,4.411,0,0,1-3.34-5.269l.363-1.614a4.411,4.411,0,0,1,5.269-3.34l1.075.241a4.411,4.411,0,0,1,3.34,5.269Z" transform="translate(-152.848 -87.694)"/>
    <path id="パス_185" data-name="パス 185" class="cls-2" d="M309.48,332.855a8.934,8.934,0,0,1-.375,1.189c-1.054,2.667-3.205,4.389-5.1,4.236a13.5,13.5,0,0,1-1.357,3.2,6.685,6.685,0,0,1-2.123,1.879c-.743,1.861,6.705,8.092,7.024,7.93.675-.345-.537-4.822-1.754-6.208a4.392,4.392,0,0,1-1.167-1.854,2.685,2.685,0,0,1,1.186-2.567,3.61,3.61,0,0,1,2.782-.627.5.5,0,0,0,.4-.078,3.09,3.09,0,0,0,.337-.869l.794-3.549A3.112,3.112,0,0,0,309.48,332.855Z" transform="translate(-152.957 -98.137)"/>
    <path id="パス_186" data-name="パス 186" class="cls-5" d="M306.982,425.794a15.222,15.222,0,0,0,2.445,1.881c.718.206,2.728-.664,2.728-.664s-.555-8.959-.348-12.509,1.041-4.577.946-5.674c-.156-1.754,1.268-2.648.849-3.985s-1.476-6.139-1.549-5.473c-.619,5.679-2.8,1.3-3.232.614C308.58,399.607,306.982,425.794,306.982,425.794Z" transform="translate(-158.187 -151.547)"/>
    <path id="パス_187" data-name="パス 187" class="cls-6" d="M325.327,391.338s2.524,1.852,2.49,2.706,1.3,3.384.762,7.181a52.58,52.58,0,0,0-.723,10.016c.126,2.768,1.4,5.165,1.445,8.571.035,2.668-.576,2.906-.576,2.906a2.214,2.214,0,0,1-2.167-.476c-.99-.912-.814-10.044-.664-12.343s.867-7.712,1.033-9.293a16.7,16.7,0,0,0-.205-4.44,18.941,18.941,0,0,0-1.06-3.85c-.049-.123-.705-.649-.748-.745C324.735,391.156,325.121,391.106,325.327,391.338Z" transform="translate(-172.58 -145.037)"/>
    <path id="パス_188" data-name="パス 188" class="cls-14" d="M262.54,392.69a6.128,6.128,0,1,1-4.667-7.193A6.065,6.065,0,0,1,262.54,392.69Z" transform="translate(-112.677 -140.306)"/>
    <path id="パス_189" data-name="パス 189" class="cls-2" d="M371.083,689.117l-1.146,8.785,4.952,2.272,2.749.579-4.88-3.642,1.6-7.926Z" transform="translate(-208.876 -384.424)"/>
    <path id="パス_190" data-name="パス 190" class="cls-15" d="M368.292,731.786l1.074.28.723-.649,3.956,1.921,3.508.8a.645.645,0,0,0-.075-.423,15.792,15.792,0,0,0-2.9-1.8s-.039.814-.388.836a26.321,26.321,0,0,1-4.082-1.942c-1.207-.738-1.432-1.2-1.524-1.139C368.342,729.829,368.292,731.786,368.292,731.786Z" transform="translate(-207.557 -416.984)"/>
    <path id="パス_191" data-name="パス 191" class="cls-2" d="M436.369,623.427l3.932,7.487,5.442-.268,2.707-.751-6.008-.983-3.281-6.4Z" transform="translate(-262.382 -330.86)"/>
    <path id="パス_192" data-name="パス 192" class="cls-15" d="M454.987,660.635l1.081-.246.341-.909,4.88-.07,2.913-.661a2.45,2.45,0,0,0-.571-.47,16.631,16.631,0,0,0-2.951-.4s.242.636-.058.82a24.942,24.942,0,0,1-4.471.232c-1.411-.1-1.822-.4-1.877-.307C454.128,658.875,454.987,660.635,454.987,660.635Z" transform="translate(-276.774 -359.264)"/>
    <path id="パス_193" data-name="パス 193" class="cls-16" d="M262.357,513.579l2.936,1.276,1.275,3.829,18.881-3.108s1.923-.593,3.149,2.444c1.742,4.324,6.177,17.767,6.177,17.767l-2.807,2.935-8.806-15.188s-18.045,8.464-23.994,6.638c-2.285-.7-4.027-4.734-3.7-8.807a52.2,52.2,0,0,1,.894-6.126Z" transform="translate(-116.767 -243.367)"/>
    <path id="パス_194" data-name="パス 194" class="cls-17" d="M303.535,564.354l14.439-1.039L316.732,585.6l4.258.134,3.146-26.093s-.847-3.883-3.6-3.3S311.1,562.037,303.535,564.354Z" transform="translate(-155.455 -277.691)"/>
    <path id="パス_195" data-name="パス 195" class="cls-6" d="M249.747,429.45s6.5-9.073,7.882-13.926c1.643-5.792.582-12.68.727-15.02.268-4.3.208-12.6.265-13.631a3.8,3.8,0,0,0-.729-2.09s-.8-2.63-2.259-2.437c-1.28.171-3.255,1.954-4.494,2.779-1.211.808-1.075,15.965-1.134,16.728-.219,2.754-1.961,5.428-3.1,8.118a39.321,39.321,0,0,0-2.677,13.435S245.284,428.514,249.747,429.45Z" transform="translate(-107.681 -137.943)"/>
    <path id="パス_196" data-name="パス 196" class="cls-2" d="M294.346,488.778s.157,1.107,6.092.453a122.74,122.74,0,0,0,14.507-2.952l-13.824.345S295.84,486.988,294.346,488.778Z" transform="translate(-148.055 -221.393)"/>
    <path id="パス_197" data-name="パス 197" class="cls-2" d="M371.333,486.363c2.833-.232,4.143.958,5.3,1.265a20.671,20.671,0,0,1,2.316.817c-.713-1.049-1.63-1.006-2.115-1.326s-.351-.149.65-.3c.569-.087,1.646.75,2.411,1.2a2.413,2.413,0,0,0,1.06.392,11.672,11.672,0,0,0-1.795-1.539,14.563,14.563,0,0,0-2.987-1.543,12.22,12.22,0,0,0-3.854.205C370.806,485.842,369.292,486.53,371.333,486.363Z" transform="translate(-209.214 -220.563)"/>
    <path id="パス_198" data-name="パス 198" class="cls-2" d="M399.148,485.977a16.427,16.427,0,0,1,2.6.552c.279.159,1.465,1.126,1.465,1.126a2.975,2.975,0,0,1-1.317-.415A24.994,24.994,0,0,0,399.148,485.977Z" transform="translate(-232.378 -221.147)"/>
    <path id="パス_199" data-name="パス 199" class="cls-13" d="M285.989,489.409l-7.557-2.709s.526,4.379.7,6.044-.264,4.116,1.137,4.291,2.1-.088.789.876-.876,1.751-.263,2.365-1.4,7.444-1.4,7.444.2.1.789.439c1.866-2.951,4.181-6.3,4.905-8.846A33.249,33.249,0,0,0,285.989,489.409Z" transform="translate(-135.204 -221.761)"/>
    <path id="パス_200" data-name="パス 200" class="cls-6" d="M281.716,413.161l-.66-14.026s-.757-2.94-1.858-3.615c-1.308-.8-3.105.684-3.105.684s-.921,2.19-.3,12.534c.413,6.918,1.051,10.5,4.33,10,3.062-.472,6.518-1.157,6.518-1.157l1.228-4.72Z" transform="translate(-132.917 -148.307)"/>
    <g id="グループ_183" data-name="グループ 183" transform="translate(160.28 252.754)">
      <path id="パス_201" data-name="パス 201" class="cls-18" d="M366.509,500.715l-.012-.022.012-.7h28.809v.7s.006.014,0,.022l-.072.13a1.89,1.89,0,0,1-1.795.713H368.379a1.893,1.893,0,0,1-1.8-.713Z" transform="translate(-366.497 -485.139)"/>
      <path id="パス_202" data-name="パス 202" class="cls-19" d="M374.566,501.942a.028.028,0,0,1,0,.019l-.072.1a1.155,1.155,0,0,1-.421.354h-4.381a2,2,0,0,1-1.728-.574l-.068-.106a.121.121,0,0,1-.013-.018l.008-.343h6.674Z" transform="translate(-367.61 -486.248)"/>
      <g id="グループ_181" data-name="グループ 181" transform="translate(10.844 15.02)">
        <rect id="長方形_149" data-name="長方形 149" class="cls-19" width="14.396" height="0.492"/>
      </g>
      <g id="グループ_182" data-name="グループ 182" transform="translate(7.116 0)">
        <path id="パス_203" data-name="パス 203" class="cls-20" d="M402.589,439.469l3.734-14.157a.941.941,0,0,1,.855-.677h20.212a.5.5,0,0,1,.5.677l-3.735,14.157Z" transform="translate(-402.589 -424.636)"/>
        <path id="パス_204" data-name="パス 204" class="cls-19" d="M460.376,456.92a.975.975,0,0,0,.963,1.309A1.826,1.826,0,0,0,463,456.92a.977.977,0,0,0-.965-1.31A1.822,1.822,0,0,0,460.376,456.92Z" transform="translate(-448.947 -449.503)"/>
      </g>
    </g>
    <path id="パス_205" data-name="パス 205" class="cls-21" d="M601.215,562.692h2.949L599.3,515.573h-4.275Z" transform="translate(-390.105 -245.095)"/>
    <path id="パス_206" data-name="パス 206" class="cls-22" d="M596.468,517.745l1.875,14.27,2.224-15.379-.109-1.063H596.72Z" transform="translate(-391.232 -244.951)"/>
    <path id="パス_207" data-name="パス 207" class="cls-21" d="M464.315,562.692h2.948L462.4,515.573h-4.275Z" transform="translate(-279.882 -245.095)"/>
    <path id="パス_208" data-name="パス 208" class="cls-22" d="M459.567,517.745l1.875,14.27,2.225-15.379-.111-1.063H459.82Z" transform="translate(-281.019 -244.951)"/>
    <path id="パス_209" data-name="パス 209" class="cls-21" d="M320.492,562.692h-2.949l4.866-47.119h4.276Z" transform="translate(-166.697 -245.095)"/>
    <path id="パス_210" data-name="パス 210" class="cls-22" d="M339.157,517.745l-5.722,14.541,1.622-15.65.111-1.063H338.9Z" transform="translate(-179.481 -244.951)"/>
    <rect id="長方形_150" data-name="長方形 150" class="cls-23" width="35.552" height="2.754" transform="translate(151.474 269.12)"/>
    <rect id="長方形_151" data-name="長方形 151" class="cls-24" width="40.368" height="2.754" transform="translate(184.865 269.12)"/>
    <path id="パス_211" data-name="パス 211" class="cls-13" d="M300.8,377.866a13.07,13.07,0,0,1,2.278,4.9c.35,2.365-.613,15.152-.613,15.152l-.687-11.237.511-1.726-.875-.174s-.787-4.379-1.4-5.081a3.75,3.75,0,0,1-.7-.963Z" transform="translate(-152.003 -134.306)"/>
    <path id="パス_212" data-name="パス 212" class="cls-13" d="M321.553,385.449s2.534,5.6,2.622,8.4a94.027,94.027,0,0,1-.877,9.9l1.757-11.388-.7-1.139.525-.175s-1.836-4.119-2.015-4.292C321.839,385.766,321.553,385.449,321.553,385.449Z" transform="translate(-169.909 -140.397)"/>
    <path id="パス_213" data-name="パス 213" class="cls-15" d="M584.732,732.041l-.458,2.389h-2.439s-.135-.338-.339-.338c-.176,0-.4.338-.636.338h-6.2s-.11-.5.024-.676a2.368,2.368,0,0,1,.749-.32c1.257-.354,4.861-1.459,5.486-2.662C581.685,729.31,584.732,732.041,584.732,732.041Z" transform="translate(-373.683 -417.521)"/>
    <path id="パス_214" data-name="パス 214" class="cls-17" d="M599.073,582.477s.7,3.9,1.278,8.89a141.223,141.223,0,0,1-.237,21.386c-.041.445-4.661-.909-4.661-.909s-1.684-20.334-2.071-24.887S596.3,579.639,599.073,582.477Z" transform="translate(-388.744 -297.886)"/>
    <path id="パス_215" data-name="パス 215" class="cls-15" d="M661.473,713.011c-.186-.222-.051-.807-.051-.807a21.422,21.422,0,0,1,4.24-.113,5.256,5.256,0,0,1,1.147.539c.071.04.2.287.269.327.129.078.2-.052.308.016a3.774,3.774,0,0,1,.49.34,3.062,3.062,0,0,1-.094,2.065s-2.64.822-3.241.275C663.008,714.269,661.874,713.5,661.473,713.011Z" transform="translate(-443.505 -402.8)"/>
    <path id="パス_216" data-name="パス 216" class="cls-17" d="M654.844,603.343s-2.555-1.493-1.9,2.512c1.571,9.663,3.016,16.748,3.693,19.957.262,1.246.665,1.049.665,1.049l2.936.477,1.483-1.011-2.743-21.843Z" transform="translate(-436.646 -315.342)"/>
    <path id="パス_217" data-name="パス 217" class="cls-16" d="M599.954,583.1a153.091,153.091,0,0,0,14.144,7.149h10.813c.608,0,5-.642,5.956-3.532,1.007-3.054,0-8.5,0-8.5a1.122,1.122,0,0,0-1.1-1.145H616.3c-.608,0-1.835.512-1.835,1.145l-13.079-.419S597.092,579.375,599.954,583.1Z" transform="translate(-393.482 -294.361)"/>
    <path id="パス_218" data-name="パス 218" class="cls-17" d="M635.263,612.027H622.887c-.131,0-10.819-2.915-10.938-2.949l1.289,4.151c0,.633,10.674,2.71,11.28,2.71h10.813c.608,0,5-.642,5.956-3.532a11.3,11.3,0,0,0,.446-3.242C640.186,611.484,635.9,612.027,635.263,612.027Z" transform="translate(-403.911 -320.06)"/>
    <path id="パス_219" data-name="パス 219" class="cls-2" d="M693,367.112l-.583-2.64s-2.058.144-2.456-.866a9.488,9.488,0,0,1,.354-6.167c1.388-2.581,1.974-7.1,8.46-3.506,2.468,1.367-1.343,8-1.626,9.431a5.632,5.632,0,0,0,.561,3.086l-1.519,1.037Z" transform="translate(-466.242 -113.998)"/>
    <path id="パス_220" data-name="パス 220" class="cls-2" d="M644.23,518.141l11.123,3.948s-13.116.943-13.166.18C641.912,518.08,644.23,518.141,644.23,518.141Z" transform="translate(-428.092 -246.993)"/>
    <path id="パス_221" data-name="パス 221" class="cls-25" d="M756.431,439.263s2.212,1.048,3.8,9.565.578,8.192.578,8.192l-.29,1.94-4.136.345-2.234-7.353Z" transform="translate(-518.203 -183.641)"/>
    <path id="パス_222" data-name="パス 222" class="cls-25" d="M689.911,424.4l-5.448-2.252-1.5-1.3-5.79-.127-1.014,1.522-4.489,1.773s-1.108,1.586-.143,7.479c1.067,6.529-.018,23.418-.018,23.418l18.327.262S688.318,427.564,689.911,424.4Z" transform="translate(-451.465 -168.766)"/>
    <path id="パス_223" data-name="パス 223" class="cls-25" d="M638.243,436.743s-1.01-1.026-3.47,1.762a37.917,37.917,0,0,0-6.66,11.788c-.435,1.142-.925,3.956.793,5.852a2.346,2.346,0,0,0,2.577.913l4.008-3.132-1.288-.652-.88-.065a63.153,63.153,0,0,0,4.919-7.009C640.416,442.526,638.243,436.743,638.243,436.743Z" transform="translate(-416.43 -181.469)"/>
    <path id="パス_224" data-name="パス 224" class="cls-4" d="M690.136,353.243s.735-.411.847.1-.282,1.645-.619,1.748-.449,1.489-.449,1.489l.9,1.543h4.567s1.411-.566,1.524-1.491,1.241-7.452,1.241-7.452l-3.214-1.543a22.532,22.532,0,0,0-2.877-1.079c-1.817-.474-2.2.411-2.14.873s-.51.514-1.242.514-1.637.514-1.241.822c.164.128-.565.534-.279,1.024.416.7,1.8.929,1.913,2.06C689.117,352.368,689.35,354.064,690.136,353.243Z" transform="translate(-464.243 -109.036)"/>
    <path id="パス_225" data-name="パス 225" class="cls-12" d="M634.405,647.141c-.044-.207-.069-1.5-.069-1.727a2.353,2.353,0,0,1,2.049-2.57H659.22a2.354,2.354,0,0,1,2.05,2.57c0,.223-.026,1.521-.068,1.727Z" transform="translate(-421.914 -347.183)"/>
    <path id="パス_226" data-name="パス 226" class="cls-11" d="M660.621,664.964c0,.434-.255.786-.568.786h-26.22c-.313,0-.568-.352-.568-.786h0c0-.434.255-.788.568-.788h26.22c.313,0,.568.354.568.788Z" transform="translate(-421.056 -364.316)"/>
    <g id="グループ_184" data-name="グループ 184" transform="translate(216.314 312.728)">
      <path id="パス_227" data-name="パス 227" class="cls-8" d="M712.238,729.871l-1.4,2.142,11.794,3.777s.788-.754-2.106-2.267C717.153,731.76,712.238,729.871,712.238,729.871Z" transform="translate(-699.655 -729.871)"/>
      <path id="パス_228" data-name="パス 228" class="cls-8" d="M664.627,729.871l1.4,2.142-11.793,3.777s-.789-.754,2.105-2.267C659.713,731.76,664.627,729.871,664.627,729.871Z" transform="translate(-654.139 -729.871)"/>
    </g>
    <rect id="長方形_152" data-name="長方形 152" class="cls-9" width="2.465" height="8.775" transform="translate(226.681 306.357)"/>
    <g id="グループ_185" data-name="グループ 185" transform="translate(217.675 313.179)">
      <path id="パス_229" data-name="パス 229" class="cls-10" d="M713.866,732.156l-1.2,2.043,10.095,3.606s.675-.719-1.8-2.164C718.073,733.959,713.866,732.156,713.866,732.156Z" transform="translate(-702.478 -732.156)"/>
      <path id="パス_230" data-name="パス 230" class="cls-10" d="M669.974,732.156l1.2,2.043-10.1,3.606s-.674-.719,1.8-2.164A78.823,78.823,0,0,1,669.974,732.156Z" transform="translate(-660.995 -732.156)"/>
    </g>
    <path id="パス_231" data-name="パス 231" class="cls-11" d="M758.075,761.436a.856.856,0,1,0,.856-.857A.855.855,0,0,0,758.075,761.436Z" transform="translate(-521.313 -441.797)"/>
    <path id="パス_232" data-name="パス 232" class="cls-11" d="M658.855,761.436a.856.856,0,1,0,.857-.857A.856.856,0,0,0,658.855,761.436Z" transform="translate(-441.439 -441.797)"/>
    <path id="パス_233" data-name="パス 233" class="cls-11" d="M768.593,761.436a.855.855,0,1,0,.856-.857A.855.855,0,0,0,768.593,761.436Z" transform="translate(-530.115 -441.797)"/>
    <path id="パス_234" data-name="パス 234" class="cls-11" d="M648.336,761.436a.856.856,0,1,0,.857-.857A.857.857,0,0,0,648.336,761.436Z" transform="translate(-432.97 -441.797)"/>
    <rect id="長方形_153" data-name="長方形 153" class="cls-11" width="1.802" height="3.156" transform="translate(227.045 303.212)"/>
    <path id="パス_235" data-name="パス 235" class="cls-11" d="M701.378,665.636a1.757,1.757,0,0,0,1.758,1.758h.992a1.758,1.758,0,0,0,1.759-1.758h0a1.759,1.759,0,0,0-1.759-1.757h-.992a1.757,1.757,0,0,0-1.758,1.757Z" transform="translate(-475.693 -364.082)"/>
    <path id="パス_236" data-name="パス 236" class="cls-26" d="M653.285,647.141c-.044-.207-.07-1.5-.07-1.727a2.354,2.354,0,0,1,2.05-2.57H678.1a2.354,2.354,0,0,1,2.048,2.57c0,.223-.025,1.521-.068,1.727Z" transform="translate(-437.12 -347.183)"/>
    <path id="パス_237" data-name="パス 237" class="cls-27" d="M679.507,664.964c0,.434-.254.786-.567.786H652.719c-.313,0-.566-.352-.566-.786h0c0-.434.254-.788.566-.788H678.94c.313,0,.567.354.567.788Z" transform="translate(-436.268 -364.316)"/>
    <path id="パス_238" data-name="パス 238" class="cls-28" d="M676.021,511.783a1.133,1.133,0,0,1-1.135,1.145H653.31a1.442,1.442,0,0,1-1.364-1.135,40.349,40.349,0,0,1,0-14.1,1.442,1.442,0,0,1,1.364-1.136h21.576a1.133,1.133,0,0,1,1.135,1.145Q675.959,504.741,676.021,511.783Z" transform="translate(-435.574 -229.673)"/>
    <path id="パス_239" data-name="パス 239" class="cls-29" d="M682.51,511.782a1.147,1.147,0,0,1-1.146,1.145H659.787a1.425,1.425,0,0,1-1.353-1.135,42.51,42.51,0,0,1,0-14.1,1.426,1.426,0,0,1,1.353-1.137h21.578a1.148,1.148,0,0,1,1.146,1.146Z" transform="translate(-440.826 -229.673)"/>
    <path id="パス_240" data-name="パス 240" class="cls-11" d="M668.269,532.26c3.322-11.119-3.014-22.239-.29-33.36a.822.822,0,0,0-.857-1.066h-.387A1.539,1.539,0,0,0,665.3,498.9c-2.724,11.121,3.612,22.241.29,33.36Z" transform="translate(-446.086 -230.738)"/>
    <path id="パス_241" data-name="パス 241" class="cls-11" d="M764.125,532.26c3.322-11.119-3.014-22.239-.289-33.36a.823.823,0,0,0-.857-1.066h-.386a1.538,1.538,0,0,0-1.435,1.066c-2.724,11.121,3.611,22.241.289,33.36Z" transform="translate(-523.257 -230.738)"/>
  </g>
</svg>
